<mxfile host="65bd71144e">
    <diagram id="RdMmBJImLHXukEMDQBmx" name="Page-1">
        <mxGraphModel dx="436" dy="331" grid="1" gridSize="10" guides="1" tooltips="1" connect="1" arrows="1" fold="1" page="1" pageScale="1" pageWidth="850" pageHeight="1100" math="0" shadow="0">
            <root>
                <mxCell id="0"/>
                <mxCell id="1" parent="0"/>
                <mxCell id="2" value="" style="rounded=1;arcSize=10;dashed=0;fillColor=none;gradientColor=none;strokeWidth=2;" parent="1" vertex="1">
                    <mxGeometry x="83" y="126" width="657" height="500" as="geometry"/>
                </mxCell>
                <mxCell id="3" value="        Private Subnet" style="swimlane;shadow=0;dashed=1;comic=0;sketch=0;fontColor=#0A97F5;startSize=0;strokeColor=#0A97F5;strokeWidth=1;fillColor=none;align=left;verticalAlign=top;shape=mxgraph.aws4.group;grIcon=mxgraph.aws4.group_security_group;" parent="1" vertex="1">
                    <mxGeometry x="120" y="280" width="360" height="124" as="geometry"/>
                </mxCell>
                <mxCell id="4" style="edgeStyle=orthogonalEdgeStyle;rounded=0;orthogonalLoop=1;jettySize=auto;html=1;fontColor=#0A97F5;startSize=0;" parent="1" source="5" edge="1">
                    <mxGeometry relative="1" as="geometry">
                        <Array as="points">
                            <mxPoint x="490" y="533"/>
                            <mxPoint x="490" y="533"/>
                        </Array>
                        <mxPoint x="588.5" y="533.0000000000001" as="targetPoint"/>
                    </mxGeometry>
                </mxCell>
                <mxCell id="5" value="&#10;Application" style="swimlane;startSize=0;dashed=1;strokeColor=#f0f0f0;strokeWidth=1;fillColor=none;align=center;container=1;expand=0;" parent="1" vertex="1">
                    <mxGeometry x="281" y="176" width="190" height="414" as="geometry">
                        <mxRectangle x="300" y="770" width="150" height="30" as="alternateBounds"/>
                    </mxGeometry>
                </mxCell>
                <mxCell id="6" value="" style="outlineConnect=0;dashed=0;verticalLabelPosition=bottom;verticalAlign=top;align=center;html=1;shape=mxgraph.aws3.lambda;fillColor=#F58534;gradientColor=none;strokeColor=#f0f0f0;strokeWidth=1;" parent="5" vertex="1">
                    <mxGeometry x="150" width="35" height="40" as="geometry"/>
                </mxCell>
                <mxCell id="7" value="CIDR to Mask" style="outlineConnect=0;dashed=0;verticalLabelPosition=bottom;verticalAlign=top;align=center;html=1;shape=mxgraph.aws3.lambda_function;fillColor=#F58534;gradientColor=none;" parent="5" vertex="1">
                    <mxGeometry x="30" y="320" width="49.5" height="50" as="geometry"/>
                </mxCell>
                <mxCell id="8" value="Mask to CIDR" style="outlineConnect=0;dashed=0;verticalLabelPosition=bottom;verticalAlign=top;align=center;html=1;shape=mxgraph.aws3.lambda_function;fillColor=#F58534;gradientColor=none;" parent="5" vertex="1">
                    <mxGeometry x="110" y="320" width="49.5" height="50" as="geometry"/>
                </mxCell>
                <mxCell id="9" value="Login" style="outlineConnect=0;dashed=0;verticalLabelPosition=bottom;verticalAlign=top;align=center;html=1;shape=mxgraph.aws3.lambda_function;fillColor=#F58534;gradientColor=none;" parent="5" vertex="1">
                    <mxGeometry x="20.75" y="114" width="49.5" height="50" as="geometry"/>
                </mxCell>
                <mxCell id="12" style="edgeStyle=orthogonalEdgeStyle;rounded=0;orthogonalLoop=1;jettySize=auto;html=1;fontColor=#0A97F5;startSize=0;" parent="5" source="13" target="16" edge="1">
                    <mxGeometry relative="1" as="geometry">
                        <Array as="points">
                            <mxPoint x="96" y="179"/>
                        </Array>
                    </mxGeometry>
                </mxCell>
                <mxCell id="13" value="Authenticator" style="outlineConnect=0;dashed=0;verticalLabelPosition=bottom;verticalAlign=top;align=center;html=1;shape=mxgraph.aws3.lambda_function;fillColor=#F58534;gradientColor=none;" parent="5" vertex="1">
                    <mxGeometry x="110.5" y="154" width="49.5" height="50" as="geometry"/>
                </mxCell>
                <mxCell id="14" style="edgeStyle=orthogonalEdgeStyle;rounded=0;orthogonalLoop=1;jettySize=auto;html=1;fontColor=#0A97F5;startSize=0;" parent="5" source="16" edge="1">
                    <mxGeometry relative="1" as="geometry">
                        <Array as="points">
                            <mxPoint x="135.21" y="284"/>
                        </Array>
                        <mxPoint x="135" y="314" as="targetPoint"/>
                    </mxGeometry>
                </mxCell>
                <mxCell id="15" style="edgeStyle=orthogonalEdgeStyle;rounded=0;orthogonalLoop=1;jettySize=auto;html=1;fontColor=#0A97F5;startSize=0;" parent="5" source="16" edge="1">
                    <mxGeometry relative="1" as="geometry">
                        <Array as="points">
                            <mxPoint x="55.21" y="284"/>
                        </Array>
                        <mxPoint x="55" y="314" as="targetPoint"/>
                    </mxGeometry>
                </mxCell>
                <mxCell id="16" value="" style="outlineConnect=0;fontColor=#232F3E;gradientColor=none;fillColor=#C7131F;strokeColor=none;dashed=0;verticalLabelPosition=bottom;verticalAlign=top;align=center;html=1;fontSize=12;fontStyle=0;aspect=fixed;pointerEvents=1;shape=mxgraph.aws4.permissions;shadow=0;comic=0;sketch=0;startSize=0;" parent="5" vertex="1">
                    <mxGeometry x="79.71" y="264" width="31.79" height="40" as="geometry"/>
                </mxCell>
                <mxCell id="43" value="Health Check" style="outlineConnect=0;dashed=0;verticalLabelPosition=bottom;verticalAlign=top;align=center;html=1;shape=mxgraph.aws3.lambda_function;fillColor=#F58534;gradientColor=none;" parent="5" vertex="1">
                    <mxGeometry x="70.25" y="24" width="49.5" height="50" as="geometry"/>
                </mxCell>
                <mxCell id="62" value="" style="shape=image;verticalLabelPosition=bottom;labelBackgroundColor=#ffffff;verticalAlign=top;aspect=fixed;imageAspect=0;image=data:image/png,iVBORw0KGgoAAAANSUhEUgAAAjsAAAE5CAYAAAEB8dFbAAAAAXNSR0IArs4c6QAAAARnQU1BAACxjwv8YQUAAAAJcEhZcwAAFxEAABcRAcom8z8AAKeTSURBVHja7F0HeBTn0ZYA23GNY8eOHTsucYkTx7HjOPnt/I79x3EcxwUkOqjR1CsIIVA7OoiiLkCgBoiOKUK9nDpIAoEkJKGCqAZM7x3t/DN7RXenq0ICTpr3eeY56XZv9+7b2Xdn5ptvxsKCwWD0ZERN9ZJEhniCLlkVFTK/Vw5M7HQf0DcwqrJkli+sDA+CXjM4xg6MqiSE+kPCPH/gwdE3SDhAS+f4QY8enGVzJoGHvTW42gwAl5H9IWaa8bfa4pkTxAFaPNO35w1S9FSvcon3KHFgNCVK4mX0ICkGaLLryF/0OFLWNjgkziO+N3mA3GytepYWudtbX1H87eho/aLmIOkaEE3tUgwQfaZHk7ViYAoKCkQJD3LrMDj5efkglRZAYVFR7xsgukVKy8oADqUCHNwmDlJEsAesTV4Mq5ZGgt/YISDF92hbfkEhDo6XcoCWzJrYOzSoQD4AJLn5BUptUohi8ODQNigqLoZYfOLRACm0r8cOjpfDIFAdIGlBx8FRSFmxVNyHbjOyg5bNnSR+1t3WqqhHDo6nQ38bTf4xRjamJIgD1OO1R/EDQ7wcTBogEsVnPR0GQo8enJhp3rA8Llr80TkZqVCfsxSEQ2n4f6FyMNJTovG9bbA6IrjDACmOBwXDoMcNjsKukUql9ONAuNgMcG6fKH/98D1Ys2aN+P6tU3XK90MmuYvvOQ77RhwQyBoMUOIFkGuDMlz2d9o3L5jt4Pg7Dfk5DQ66G0p7ZvP61eKPhjO10LQzB/ZVZot/b06UqL1PryTF+BRTas4OH1AOkvjqCWavPcvm+qkZgambNsBbb70FcKqqXc5Wi0+sm/u3qr+PUlJSohyEW6F9XO7MtQQRcZaimPUATRw3TG1wytKSZTYOcsznn3wIcKIcrh8pBjieBc3SRFF+8dTjeHvtxsGplGkU7iucrRIUAyQOzNZ/A/zwN/MfIE0XAq4fVBqImkKkXLE5Ssf2NFSZgn4v/NxiAsQif615X6lFZnx7WdlqDtAs33EAPxZ0HADUktunG0A4iNp1OK3jdiR0OmZ1dfUtWGrZM24vZ1srD80Bigj2hFB/F7hzrl5tANpaUyEtYTbkpcxTH5gDqSCcb1pBx6uoqHhhz549PefxPnrgt7/VFsZYGOAq/khNYzBfKhON97/evXt3Ig0MSRG6HT0+Dh0W5A67du2yoh+sOjjXW9LhRF1WBytaMTjl5eVkQ/n2+AEKxwFS/GjUDq2k/GNN+0Ah78icWwDLHulmaBuk0tJS5SCR0KBUbYtQGyTV261Hx38mOQ6v1Rwg+tHkctxszcTBwCfXTznw/Rd/VRug2we29Y4BIkx2tcmY4mIjRg4jgt3bA2Oqt5bm4/1wLxogBQLc7CDA1Ub7AGlIQ2Vu7xsgBRRPMOIZXQNE23fu3Ak9yvYxZYDaH90FHaxq1cd7rx4gheiyfUjwMX/TojdCl4ZUVlZ+2au1h9CEYQ2FNBckR+rbvr8weUWvGyAASR+FaN0uad/eYy1oBoPBYJgZFs0YL+jOZp0k9MpBMSWbdUVYEKyXSB7u+ZoyfXyn0n2T5k+B5AUBPdd6jp7q3elcaEpsiMccoMTQHpg0jokJKWI+8yzfTqX4ktDgxGGKXeQsz+d62uBoTfGlZHFTB2fRjAk9R3uSJN5P68p/1pfeq23BCg3Okpk9aHCQa0pU/1fTHEwON5aLYpHMFZrjbjfoox5LzjQwKUnxyoCXtqRwxbYInBeTrb+QaY6f03BKzIzt0YOjCMBXleXDikXzYOm8INi4KhEWzZoEhYWFanFmVc4Rtc7WyqlHDoy7nfWemYG+cLIuU20AOuQ8y7dR7FkxOEtn+/X8jNXYsLmYEZYGFxrT9Wao0uDkSQuVg9Oj03kVP87bfqBJabxkIc/xc5Kl8tr3wFReN/nAzJ3khJxSZNLgrF26sOdqjZud1RX6YRHyvB7Fj14VHgwCThXXZcepDcatlq1wuX4jrI2eLv5fUlIqJ+IBSxXHFPKG3uoxtxNlhBF3SLxGwRtvvCFLqjzfKOYwC1f2y/5HiK8XmuTvt4j/l+GKHhzgO0KW9fuqabuKNF6zHphgL3ulDTPVe7SMbK82tecwn90LP3vkEcw3zAC41gInGkuUuc00OGq5zcUemH+JuYlZg8SBEbKHmK8GOY9Q959mT3QSB+fSoTK13OV33nhZfDp98Mffqb1P46GaJifmNB/bAZDxrZh0KSyysDPLgaFFIhGaKbuX94vz5BM8XTDLtAbgZIU4AE3yfOYTlathHu2Huc5HqzAB/EiauD+0HZMtG6Bs1FgLZbqu2Q6O96hB6jmEgW7IJQ3asy4Op0Pl1hjdaSvIQ+LgxMmz4aNxgK4cxfk/iyfMcnC0rV0XNUfjh9+mJQKU8d52U6YlHQYH03XPNg5T8o48jxmWmXEuszbvmnKYl4ZOxvzkrWoDULE5BvOYZ8HxilXqA3N+pzK5khINtm/f/miPeITrCj/Mn+zuQNu15S9LNXKYEX0aGhqEHpeFsRhjL9oGR6EFqoPQujsbbremdUjwxqx3tdyeHmUd6xicfsps9gKpzpQ4VelxWe+EsED3DoOzcvFCtYyuSy25WhebqAzMFz02TOHvPFJtcIpwsRr96L2VUlxpIxuMXz37c/jsb+9q1R6Lng4aoEA3W3FwKNJHP/rE3vaAV9sB3bdWXl7eSz1+gILcbHcGudtDgXxw9KXhqg4OZsX/xaK3oKamRvn00TUwu7bnKbNNq6qq/tRrBqe+vl7t8dx2UD39v6CwQLz1lItMAPr2msHBpUcj9eUm4xqu3p283djYqLpOq1F1W68emCPb1z2qmnesuR12xT2kb3uPh8GcZAPbGQwGg8FgMLQiOtj7E1zrnBAZ7LE3KsTjGpZauo3/n4oM9iyJCPJYGDXD43UepV6MUL8xT95NcrS2VPvVURJhzYIZv+HR7YHAi1zVVcqir7h28sIAMekqacGURh51M4epKwq6Qkh5qDoppTT2inr/PQ20KKA9BVy2WICE2IHmZXFZHHTlo0tbDwQxWRgLJFM29dI5E5v5qpjHI0pctLUMLxwt1dG3UsXFxrS+D6aui1IoD61XWBjoziz0IIOUZsaEsXoVRptMxV4ZXf2Ii0fFUVWeJbMmYOK5dQtfpQfRvgn2mqRgGjd7q6jPP/+834RRw37jYWt9yRgF6mrloaVj6srTCzpE9FS4OliFaCpM4pIYcf6VJqYVS+KMlbycLGXKFdXAM6Q8CzHPVlTskQN8+WqYIWi9El1An3Ej5LkvBWKK2fl96XJFKIbIYP1KEzVvRvtnqeYfrlMQ823y89X2W6b62JrhC07Dv5cpj+2AxXwlzJF98OI5Df9WvNjFhVKdeYqGpL5SPc+RMmXp/cy0LVoNZj/H4Uq2m2g/7A2+EmaoOCRLY8LFCy1oJJzdak03WnmO7MnqsFohL79AXKhIipM4v91VD3S3UyqOV09tutJT4W5rXaJq5/h7jBEVoGVXDhSa2HlH93rnVOVjL2He5PYeT7bqNhZfDTOBr63185oGMvVxWL8yqUsURpuQ4Z2IEeb40EkdvDmPUQP+wVfFDKBo/qqQhdh0kaLKU33Gar3o0rxc2LYuWRRpfp5u5UBmyUrdCFtXLYOc9K3i/5r75OGxNBWHS4+ag11jZ+WiXuvISzkNMc1nDGRnZYgrt1esWAHffvsdvPLr5+GpJx6Fvn37iPLay7+CSc4DRXtm3+4i0YMioToBcCwDCtbOho///Dt46KF+0LdPH+jXty8e4zn483u/h5CQEOUyEMeh38jaEtpZXaDvJWQOjhYKbdqESp82ocShTcgdIgjbfQRh5/g2QTq0TSgc0SYUu8/hK3if4GZrfUOhNPOmuHQI+oV4OiCr5IOvr6+sVsJFrKFwtl6H1OE+lvDOO++AIAiy/W8cNLC/BSrVQ6ICOQ7/5rDiewlZg/8N+aPb6y7ISwwo/8+zk/2dPQyETKtP+Ere88fUQGULSeo8rS0+M2P8GGX3RVEZLuPC+NN7ZHKmuv1v+f/iPidyRE/qhed+AWf3l2jfVy60P7UwwGXPHQxjRVs5UeZYyAT/blvY3gfLbKsOmDXj2FmFkuIkYWlPfcG9mRPGQTE+fuSrBuGdN1/DVjGVWkWmONlqrvgHv38dbp6o0Lr/nVM74cUXX1TaPZrr5hXKI0SS4GqHA+lq/QlZee5j/CYBS57qUppQf2eIxQivWNJHo4gCtdCpSgvHWiZOsD7WH+78mKksy7H9hyiVZgVJUL5J1nJQwG270yLx2E6YRTgB2o5mdlyoeB5bo948rGSgwvEW9hAvV5RTFaLeCMfK1BRIWGIxkK/mvYzhjBrw3qKZE/Qyziw/R5w1d5Apz5EsvUt2O66OT4PWokTTPiO2aGwB4ULjfMX3rKqp/xcsRjZb9ggyzOPtChP7GCrNYwBJlhwDutdwHvG9hzGTmMQ+87CEi6hAB7fqvfDnqteLbNOYtwxu3LhOHAHnjtbJ3stPMKw42OpSuHZQmfyFPWd+S2s64+LiHhIN6ESL/1B9HGIiId7in3wV75uH1d/G1FSJiOD2KnNZubk2uyrL4FyzVEdxJF2MtA3uHMqGluoSmpK4rO274Rr8E4rFwLi+npnlQYQpeTgLAtyUF5FWgVPMpysiy9SvUbMlmEJ0eWCMBwAxEu9NxioPtXelz+zfv19r7zcqYyIYYKCSIuMUSHnM/Pw4vkoPMNCmOW+sAuFivuPaGGK32AY31ehHV0257mkMbK97g6+KGcF3zDC7eZNdDCpPVkbHtpvaFOnNV1+EczVr9SpQ064cNaUpwRJefCXMGFhy7KS/8wicyxotLrvRVJ7CIvXi4KrlyJSCsZuijfNkwUJ9DHS4YwLZ+vXr+/JVMHslcnhtiqsttpBGwVbSVKItAPtuKyYvFVJbnmt6HEeRQHYgrYPyZGdn/5FHv4chwN1hdYCbjbLGn6rcae2E8hza1qGCba+rCdjbUFtbq2bfKNx1qYGCkaqyvypba1duEqyE9wqPcg9Fc3OzdiN59+529pA/zi40ZsCV5nRoqcpRKwVNrS60HYOKc/II93Ds27dPp6dF0WC5ktzER1A0ygyUerKViKX0eWk8sr0ENTvyHaurKkBNamoN9v5FJfHR/FxNVcWNurr1D/Oo9nC0FCYlqtZYVZXGvMR5hj5PKYa6Pn90xypmHwaDwWAwGAwGg8FgMBiM+wyJRNIHU1onYZWvXEzd+Cl6mlj9/Tp27N4XEeKxLizE04ZHiSFXFoefYRWwk52pRUifWRUVcmplpOQpHsleBFw9sa6rilfScVIiQ2B5WFAFj2wPBl7s5d1Rbxkfa7AyPAiWLwzE6u8BhTzSPcyWienGau8KWR4WCMm4Xj4ZizutXy/hSVJzR1SIt9+97DtBypNIZeVw7XzcbF8PvgJmimiJV8a9blqyCGsvK5RnmawS6jy+EmaG8GDPlfdacRSipjyzJ8KSmb7f8hUxF8M40PPv6pXYfcRayIquN1SbkBiiu5SHGqEolGfpbFn1d74q5mLnyN3wJagwVM422MO+Q/cbXNsllvfvLkNaVXmQecRXvjIPup0T4rVP1u9qMowfM8Rgs5J5U1y7pe8WKa2q8lCPr3Ejv/mAr9CDHcuBJFQcQ3221MrsYkORru54Q48uTeXxHj2Y2efBNZLdp5JNY4riiA3bcP/uaCepqTy+44ax8jyooAvlZmtlcqM2kgX4+Opu5ZmE6+fdbQdM5Cv1gD6yZIWzrW94jRr4lgSbtbnZDZhtjPLQhe165ZmkwTxDqaj3ab5SDyCol9ZEhyEvaNuGF+2OLsUhtho/Zmgn5rQ8xGJRxiqPh501d70xV6ACqSmN07BvxS41tDo0I3WzibPp3vg5WcGENfHRRikPFt8UFYivhBnCy37gFqXiiA3bCpUFDsTSKBnpRinOfKxrqFkZY13yYr02j6K/KLEcXwkzhIe9la1CeUrkleAPV8uqvOfJFSgxcobBkrzUkI32vbE/Ta3Mij7lCcPHGyuPGQN7e84U2zS62MnbRBZ0aBFJVcPCMe5DFeNXLFoAG1MSYf3ypZAQPgOiMXazNDpM3K+hMkf52ZvyFpFUCEGhOBR4VFUehRdIdhlfCbNkHllzk/w8WSFKzbrLu8ryjCubq+WzefmyRyApHilPHCqOQnloclTZsM2ebR6zhCIgSI+sfC2FnK61pBmvPBqfPbhHVuwpLjSww9xWkIedqmdXy1fC3BTH1uqUwlCmx0suMoV6ibhULOCUbVwrSJS2A+rKc7FJ1tw2JS5cjFYrlIdErVWkrfUXfDXM6XFla/2+4uI5D/9OtGvyFMqDj5+iws5Xfr/eki7rVyHvy74idh4kouIolIemJLhBrZk/rlSlpLRUfPQoDN27lbLifKiWF/RWTQZbOluddbDLMiuPORrJqvLD2lXd1Nm4SGQdUXm0zOy7OQzhlAyzcc3trDvMngd72uNFLui21thbVseLiuOm0U+dpyXMiXHsrMtVL54zKs5S8n4iQ7tNcRStsyc6Du/Adu4jB7/HV8UM4GlnNUZNcUag4mBKKrUTIHtH2wXPTtsMW1cvFV+19UpXdrDJzYZtaxIgbf0KjCzna91n7JD/qj+u7Kyv8FUxB8Xx9HykA+NgrIUM2QA3W/ULjS77GlwqvD5mKlxv2iy2SrrRuBnS1y7VrjyFxdBSkIj7pYmyJ30RrI4IgvwcdRd/TsgktRl7ze8IaUNeELKHCBDn9BBfsQfrcaWiON+LjyrFmvIpLiOVfbH8/f3hvd+/Bb958Tno27cP9O3TBx55+CH49K/vYvPZCIBjmWIHG+yVJe5/qLYQWwxsBaeRX8NLLzwr7k+fe/rnj8PrL78IgwYNgrVr14p1mtemJCu/A61WFRUmfygIOye0CTvHtwkFQ9vEHuqVPm1Cyeg2QTq0Tajwuc1X774qzsAqVcahJHRl7g0KraKgyu0WYjVcC0hZugCESy3YE3Rfu1xshvOHKpX7EAIDA8W/Rw7+HoQrrer7Y8/SNhTF/v/85z8hdcsm8TtMGT34OVFxSkYA5NkClHgCKQ1kDca/vWRCf+eOkG0rcWCj+n5g/ODBj6raOPEdWmV7QLC7LRRjgJCu55NPYIfhs/U65dyRnUrlodeXXnxe7/4H6wvE/cLDw2HzD+vB0/PrR5SPqaLhcmXxlClL/ii5Ig1RV6SC4aw898XWcbBWuuNJWGhAWyWLEGQeemytXr0a3vztKwBnakW5fbIamnbmiHLuQLn43vWf9siU50AqzJpoC79/+7ey/c/uhcZK2b6tu/OVx7h2QmxAq2gLGav63YRi97eh1BsVZZCKssgVqWCs7P9sfKxlWr/IV/KeG8lfK43kZC2KI2sN6QlTvUbJsgYzMuC1V34NcHpPRzlTLb4WbUuAb/75kWwK46dcmSJ12Lf978tHy+Hpp59WGM2jOhjJCyzhzly5zLGQC7bGXizrrw6J3Ff9vgDD/odJcSjDT3faqCdIPGXMU15eLlOGU1Xa5WQV9LHsg0qRr5z4fPihfgBX9+n8TGFaInz11VcK5knWqTzTZY9CEXGW7cLKc38gmzeyMrjyM2yqr9KdFpXnWgOySmUHadm5Feys/qk+634iG556Eu2kE5VaP4PtKESlpGNra4OtUB5SlLa5cgXa8hkrz/2El92QV8TH1YIpetthw9UDeJG3y5K4SI5kigp0pRVzc06iApxAW+diNS4J7g/v//41+LE8BZqxEYlCqCnJ2boN4mfunKzAz5TLPnO5Fn776kuwLHpO+7ExvUO4dkDAZl1DlMoTpcIyF1tBOCpVZx9WnvvgnttbJ/g56V9zNWM8GqXXD6GNUtMhiavtSAbOgHshazlDc0EcNpxNE98vXR+G/ycpu9mUrA9Xbms7kg6rInzR/XfEbUs6dgI8sFV04VW/Z8RQC5mSLJKzTvLLstf178veT2Lluff2jt2AOwkd3HINe2eqj3gxxYtqQg/R4nVhsGvbIkjBeoMKxTFa8HzC1VbltAQkyJXnRLGScYQzdbK/oyxAWGZ5k6/mPVcea3Hxnb6FebP9HLEnaBY+LlpMbkLbLI1HxUk37XM/4iMJg4mq3/NYZYpMYRY9DkJsP5kiLab/H5O9v8TiQ76a9xg0X2VonRUtlyndloRs0GzwwgsY14FDsiU1wqF0uHHtKjLEXuV7t1uMYK8TZQA3DyuVB43ofnv37j0Hyyx2qXlYchGWWEr5St4HzDeiQEFYoLuoQAJOPYixGQMXvzFfbiAfaYAb16/jc0WApvx48b3L9RsNfB6V61KzGutQP1Nsfis+wmC9xcNCnOURudI0gcSiD1/F+4SFgW5GrfIM9XcRZY6fE7RiojucRXY4mKpTCY5sXwk5K+dBWsIslNmwK3URCIZY69y+q8KJ6udVvx+24b5GjWvRfb+l5rpLLLjU7v3GggDTSqMsxP3n+zt9pvh8KU6UttYWg3A4q8NaLL1yeBucbpRC5Y5SrV4Sdkj+qLq6WrV3+xm+Wg8a85haVwfnuBSfxSU4BTrXZuG6rnwNkerYVxEURCV5Fx9PP2prmY37pfPVesAwbfzoOmMVJxw9r7BAtybFhSZm6Kr0U4ou6+q1Ttt37drFiV8PGoLc7b4zVnnIcF4Q4JZIn6uvrxcv7M6dO7UqQ2mxFM40ZMBtXNx3pTkd6itzdTKPQnQpjjyHiPEgwmjmwWmKqBCvLTt27HhL9QJTxqBCARp35uq1dW7gkmRFVQxNQXZRHrNUnistz0Z8l6/SA4roqV7HTWlxhI+rIk2GoCXIt1uNjCKjYZ0v1bZuq1A5OSpW4SguxgARWPIV6iHsQxHnmpra69oeMRea84z3tqguj55HGDLO+3xVzAQTxw2vNFZ5aK26LuOWRBn/wUlTfVMTR2uyOigNso3AV8MMMclxpMF6yhFo9ygutGocRlNqpSng5zzIIPt0dPGl3nwlzJWBHEeIJdx0KU/sTD+1i12ELHS9NRu9qnScy0pVss4/cAlOTsp0WdLYiRydCqTF9uF2keYKB4fPf0b5PX6O2nN8kqPnqq8A1VLkiYSU5j//+DNUpobpZZ/yEqmmrXOBr4KZY4qLDUzGRX5TXG1wPstR+Thbt3yJUcpzqzXVKMO5vFSqNdrMMHMEutleIuUJcLWFQHc7cdHf2uUJHewUk+a0Ojy2CtWOVVlZycrTUyDxtHkqBFdNKJRnPS4F1lSeS43pnVMeLQZzRUUFK09PQ6jfmCeneY9B5UnqWPlCx6PLkCiKWLLy9BKgG75e4Y6TfaK46KfqMjvNOhRZVrj9LS0trDw9FZgyEa4az8H/VYpTmjA9oWM2vbGxkZWnBzPPUF2z3+LM+Hb9UxQX9mUo9yXF6xBcrK29yKPcQ4ETlX10RZXp8dP+KMK+FDj9cBVL5Z7G1IydZfkG0y/ksp5HuQeDEtJ1XXzKvSnoRN6OQnh0ezjQI3pbnwJQJTBSInxF06YgCCUZc4AMKg4azVU8ur3DcB6gQwEgOzv7cVNZq6amhhPcewt2pcb9sqGuGqqrKpSyZ/dOqKure8LQZ9EoVvscyY+bJj/Lo9oLgAUMBEUBA1WhwgbGfL61aPlFbZ/fX5TMNk9Ph7YLT9JSaJzyoJKc1nWMffnxv+MR7snuOpa3BdAmxucba/+8hJcOMxgMBoPBYDAYDAaDwWAwGAwGg8FgMBgMBoPBYDAQ1IA5WuL+f1gsNjEqxOMaVum7EzPVW6DaEIbKHemr3kftz/BYdJw7ESEeF5bM9I1YFTPjUwkXvWcwehciJO4uWA/2BJKC0BlC6UpZNtsP1kRPFVAupEQESfjqMBg9w5L5Gd7gBbHTfOB+k4xBEpo7CVIigmFleCCsjpRA0sKA/SvDArhPOINhFhZNsPsgcnE66yLdb1k0YzysCAuC5QsDIXlhgNh0eGV4MCSG+nOFWQbjQUKYxP1DJJtb5kg02sUDls6eKCeeAEiaPwUS502GhHn+9PedJTP9PuKrzmDcN+vGIwWDwNBzCKdjgFqTeKgBejy6ZWgBwZI5vqGsBQzGPUJ4iGdOtJm6Up2ReCSZBA3iWTbHD5ai0P9LZkwIYK1gMLqLcII9fWKmeZs4nS2TKDMnKgo+ayMecsmWzPLFVz+IkUx8gbWEwegiUCUYnAK/pY1clsyaqLwBl831gzj8PwZnsagH7xw/J7FXC/1NhLV45gQM3k6A2Ok+4j7GktiDY/lM0ko89JsxR0gkHwxOz2SNYTDuEhg4/igOCUOVbOjGI/cjMsQLPB0GgsvIAeBqY5pMGDsUopF8FBaRORAPuZdk9eginsUkM4hcx+ew5jAYnURUoMcXCtIhckjCOMf8ADdwHtnfZKLRJS54rDmTnBRZxg88+ZDVZoh46Lc4j/g+gzWIwTARCyVuby7GnBZFcDUIm8y5dCHhaApZTuR63c0yiXsy04VWHo2HPuIhciKLztW2/yzWJAbDBMRM9WmgGw0DyvT07jbCURUPJB9zCESL8Sw9xLMEiWeS8wjwwt/jaWP9MmsTg2FMXCfQ8yu6gYI9HTqQg7udFYq1XKzAzbZryYfO+aATDwXIDRGPn9NwuStplccaxWAYgYhgrxUhSADkWnnY41N71KAxhj7jYTdwGO17t8QjBp0f8FhP7PTxSDyT9LpaPqOHiL/HzWaA4Gtr/TxrFYNhAHMnOf8bb5iGiQ5DTM5L8bbp/zuK1xhDMuTCTfXzEHupFhUVQ/icqTB+9CDo7uTE8CB32LgqAQqLiiA/Lw8Wz50CmIXdZcRDqQJOw2XuqZfDIHC3sbZmrWIwuhlOTk4P6SMfp+HfwrpVK9SaN6tKbnYWRAR5dDnhxMzwhQJs16rtnIWFRbBhZTye181IV0s38UwfP0bFNbWmIPN01goG4x7Axaa/n3jTaVg4C2dLoKi4WHnDS1Fad2fDGewUn5evQgZISlvWp0B4oNtdr7eaiUSwddMPakQjlRbAteZ0qKvIFf9WvE+WV0L4DAPBZV+dMR5a3e5ma6X8zfS3h631YtYIBuMewM3OaoyHfTvxOA77FtamLFdaOXSz11fmAhzaBnCwXY7XZkG+ChHk5mQj+bh2inQiUPycRorWjOJ4dOzz+zLUzknfYWdZvor1UwgbUxJ0ul+6ptNp6USQh71GMJ4tHgbjngEDzZmqlk78oki1m/9EXab6za8iV9ASUSWfvNwc0f0SLSUd7lkH1wnjN1J0q/Lz89Ssq7aDaTrPS5aXVMXySVka0YF8yKLRlkBI1s4CSq4coZ7r5DVqELiO7P9P1ggGo7tJx3aAleoM10RXeygpLVXe/A2VOR0sHU05UZupRj53K1otHU3B77Rre55a3Ec11hQl8dS5VksMKGvJd8KUgyusEQxGN4Oe7p44k9Nu7XwHUfNnoQUhc3cojnO9JV0/AaC0oRQWSLuMeLYXS5FYUg2e9yzFmqTtVlNyTKiSeOKQZDSJh96jRa/asrrdxFerSNYKBqMbgdPGM9xVAquKGaxlsRHK2E5efiEIOqyNM/UZUFokVbo73SH5KOUlUrjcmKHV6rrYlK4McpPFQ+6WYo2WtrIYtMzDaYT2pSQY57opkQx5mDWDwegGeH7t+YibrfUlXYtA50r8obikROnynNmXqSSbPTvy1GaV7rXQ99m3Ux7kRjlS0x7cpjjPsgUhsAjzdhK1FAKbN8VV5/o1Cqy721g5sHYwGN0Rz7EbOJ+WThhaga56sxcXSqGo8P6RjS4p0vhe2RlpEIsWjWbpU/rbz2mEzt9LLhZafmtZOxiMrrZy7Ab92dPAEgkiHFoCMcPPBYqLSx44ojEkZIlRKRBV4olB68dQWRDM3dnNGsJgdCEAwBLdqvN6l0LgjTkbKw9ibWaQ+IxFN6vU7EhH6Yrl5SLpUHeJANnUuIFlIGj9VbKWMBhd6lZZJbrZWuklnAUY96BEukjMGJ7kOBwy0lLNlnQUkpIUj0Hy7wxZOeRerWAtYTC6CF621n/0chikZ7Fnf8wudldOLdMsUKCbHUTODhIDtIYS/dI3pmAr4WmwKiwQUrCZ3kqUFPxb9hokvr82ZgYUmuCuSfPzYXVEkPKYKYpjLmw/5rrYmZC1dQMUGPiOxZi46OfqoLuIGa3gt7f6ijWFwegiuNtaF+pbXU51l2laWbWUBRV5D3AZCZs3rNVxMxdC+oYVsC4yGDYvmYlT25sBzkplcjof4Ay+nsoDOJ4FcFie83M4Da7gVDcFgA2RThnm7Nzan9Y+XX4Ej3E8W3bMM/myc8jPd2bPOtgQMw3W4ncRSUhb0BnJcWlMGDhrsXrQyqnp6I5aWAJI+qgKvS9kDpwP+UNByB4RLNtPvl0iFwuwZI1j9Gp4jrN+WZeV40KEg64UrdDuULQL/w/xGo3EYyNaHWVlZfD6668D3Wfa5A+/exPcxo6EBTP8YWXcfNi4PBolChJjZkOIvwd889X/Qb9+/cR9LS0toW/fPvDIw/3g1VdfhStXrsDNmzfh1q1bsGfPHnjxhV+J2/v26UN3sPiZxx97DIZZfwMzg8bD8iWhsCklBtYlRcDyxaEwJ2QCjLEdDL956UWd3+/TTz+F7du3w+aN68Fp2DeqhHNz/NjBzyjGS8gZnAHZgwGyBgEUuQKUeMqE/qb3suTbCl1UtrlpbHOWvb/dC4Qyz1WshYzeFcuxt7L10FhZrnCpFmItm3hsY6O7SqAHSLCIWAgulqS1UkQ8b7/9ttrNnLN1BVobDabLtQPgOmaE8jijRo0CBT7++GPl+4vDpwFcajb9+JdaIGzmZLXv+sUXX4i/IXXLJiSebyl4fH2y68hfqI6XkDHIAaTDZARS4tFOLAXj1ImlWGVboZPGNjeVbUhAaBlB5uAhrI2M3mHp2FvPc+sQNP4eZvmOE6eUDZcllRFPkJsNZGemK12V0NBQ8UZ++de/ArjchC7PXi1SB5cO7YRjDaVwumUH3DlVg4Sgsc/5enjqySfEYz326CNw4/Jp2FdTriSKTz56HwmqRf0zZ+vg1k974GTTdji+rwSuHK3qeFy5nD/Ufqy1a9eqLlQt1zVmUPB5PyF36GUo8ZKTB75KR8lJhWQIQKnqttEqpDOknXBEshpLhANC3tCjrI2M3mHp2A2I0Jy1mogzU0nYP9yU5nvTfMaI5JOSsFh5427ZskW8md9641XAYA3GWWra5UwNtFTlYtZwAZxuLoVzrdvhbEsZHK8vgobyLLh5fJdsPySio42FSmKAY+0r3PcWxInvPfnE4zLikR/7IhJJY0UW/ISEc27/dvHYp5tK4eCefDhaW4DnrlX7LkRQdJw+6K7t3LlTFjNCiwetN3dD43cr1MIJEl+HtqR3oS3hLbm8DW0r/gxtyz9Awddk1W1vKbcJq/8MsO5dgNW/AmGxhQ1rI6NXwNXO2k2VdCj5j4LGS1Sa+RlbeGuWryNM9XKA1clLVZLxpPDEE0+I1gqcw5v91G7T5fxe8Bonc7Xy1s5RX2eFweeIYEdxW3yEBPff06lzHNqbIx7jzTffhPLyclXimWCYePq4wAJLuDNXRWYiQdYkIElWiCLs3wZCOL63FOPPcVok0RKERRZ2rJGMHg8XnC73Hj1YSToBbraQvIDqEHeu4t+siY5o9YwWyUZ1ZsjLy0tGDJFIDCd3mibn9kBoiLf4+aqMKO2ry3EGLHG+bJ/cTUsAfjLxHBdqYLzzSPHz0dHRajNbpaWleztNPCd3gRrOVAPEWjDxMHq7i2V1UpmPg4WvqKhVp1r84pR6DPbFmjVxHKxaFgUlJUWYAyO/eaWyRZeTpwSIN/ZktIjgAlolJyva5afyjnKyEloqN0G/vn3ht795Ad/LUS7o1CXn6zeIs1svPP8sxnNK8TM6ji2K/NwXa+C7f38qfrdl8Qni9y2QKvJ4CmDHjlLYUVxsiwz3M1HWr++rk3jmIYEsUSGTJUgy6/8Awqrft5PPaYwzxVgw8TB6J9xsrAdTAhzl5BDhdKaPOXVtWBjgCukpEQBXDyChNMtu5oOpOi2TqtwVSCS/Em/0Jx5/DP76wR/g2y//F2/+/4X/+fCP8HN5APmZnz8BBWtmA/yYCdebNsPerGXQLE2EJj2yN2sp3N6/FT+TgWutvMXpdTrW8798Bj792/vw/VefwtdffAwfvPsW/Oxnj8imzf/2HhzauUlPgTL8LafRHbuA8akbh0G4UPe3DkHmxRaOkKTFitn6uYxszjeAsOIP7eRzvKij5cPEw+gV1o699W4nLNZFix8pGbAzls48fxco3BSPQeNW2Y35kx7SuVvBWE7JujBIXTYLmguTVAgnCTYtmQGVm6NkCYPdce4DSGZn9sh+450fQTjTMFBjOOuJfy5EqRDJDx+1E82PSDTRFiBs+Hv7e2cxqJ2PhtQiOQEtR+JZYvEhayajx2LyyG9/4T1qsOgaRXXC0hFJZ7ILzMaYzozxY6EsbTlOle+XWTzHi7uPfORWU8m6cOVyiIrN0SIpddv56LeQa0akcxMtnjN1HWrtbL8Az7Rt+Es76az/UzvB/FQpko5sG5LP5i/at105BhAl2ybEWRawZjJ6eGxn4Jc+GFSmmsF300KGipzPmeQEy8NDRDdEvDlplogshG4jAhUr5F6dB/OBxN/WhkRxrvXnmuOJ2dOL9jbsP4oxnY06Z610Sbz4msxayejxcB35vdP0CWPvulc5xXjmIvGQkPWzPCIErh7HmZsLmE9zsvyubvhbLVuhIS9BdKeaC2TSlJ8AV69cghs3boiiwK0bV2BfzuL2/eRumHBXpINW1CkMBF9sAeFSSzNWjH9N21ju2rUroKamBlCuYEC6H72HLlOw1piPQoicEtDKWdrHk7WR0WvgNLy/+8IAty7r1EmtYMj1CvWXSXnWKnS9MO5zDrOCD6XfheuVBueq10NjfoJGIDlBQ9q30b6X638w2M1Cr2t1BBeWXmwE4UrrLeFys7e2McRp9ieRbK7SWjESTDq8nZqa+pi2fZGIxkGKGMMZyNrH6MUWT3+XriQeVQuICEhVsE7PITonHGv8JVxuGSKc3rMbjhXdkcVlUk0jpUO4Ur3hB5yRXgPHdqyEY+UrMea7Fq7t2yRuM4lc5PEi4XjJHeFsrVS4cOAr4UzzU1TwTN/Y7d69e1xdXR0oCEchJSUlV+Li4h5i7WIwdMBxxHefdwfxqFpA86e4QFige4dSoOiO/HLHjh3qNXTk5UZlHR4KoKS4EGorpXC4JgdbHGfCpaYMsTXOrdZ0sTGfcEDuCqG04d9tB9LEbddwn4vYReJ0QxYc2JML1RVSKCmSHVNxDtUC89QBAyVL1ziR61RdXT0GieVGbW1tB7JRCK1ixyznRtYsBkMPPrf4vN/cSc7dRjpUjZAa4kkkkn4a8RBvlAeu0iCSz52Ghobb6DoJSDQ6CUYX6aDbRdnaTqxZDIYBBHvYJ0R3cirdcFIhWlPBnltVz4cWQ4PiZkV3pfOF2OWtaVRF2jXkYxLhqBIoulm1rFEMhhEYMmTIw9R+t6uJB90rJB8PCAtwS1ScC2MidUQ2mjevpsulrdvDgT24VOLANqODxTewAmFVWR52BS00vc0NrivTZ/HQb6ByqKqlUVGuY1yoD2sUg2EksF7y/8XN8u1yV4usHrR4muTB2Mk03azPelB0G1WQzeWmrstAbtqVY1LjQFqRbogc8fvexNf9rEEMRicxd4qzY2wXWz604DQa6/jM8nUYiy7WRaNcl6rdcKUlo3uSANFaOlSdLbYx7nQPdozlYBxnPmsMg9FFwCzmwZGSrg80L54zGcq270D3xfjYyW6Ulr3l3UJANANWYIL1UyJrv5zBGsJgdBMm2di8PAlr0oQHunVRkNkNNq9doVrXxqTgrYyEqqFZJCFZ3s3NA6nwyq+fg2eefrK9C4WJQlPxhgiH3Kvc3Nw/s1YwGPcIvuOGr/UbNxymeo/GJRV3EevBOA8Fa9WDxdIOAVwiF5Kq3TKhv+n9aswzrKneDQ01u+BI8x745H8+gmd/8SQ898xTYP31J5CVPA2uN/7QKfK5gLk+efn6g8z4XZNYGxiMewgnJ6eH/JxGHvXDusuTnEZg2xoHk4ln2UKJ3qZ+NAV+cE+2cWRxMhdr51jCtvgQsYbOjs0L4VLjJlwescTEjOV2oR5cBoLMR1gTGIz7AInk837+zjb7/ZF8JjmNBH90xSZjwz6J1yjZzJWema1VSyNw9qdId29yjLWc3JtpFElcatgoEo6/y2A4tisFu1/8R63gu+mlNVJhZ1m+oan1O/j6NGsBg3Ef4e9oOz7I3V4kninYtG+Kqw0EuNqKMsXVDjAhUazvQ6QTEewOP6xKVJsm12bxHNid3f1lLXRIqQGLp6KiAjIyMt7gK89gPCCY7GITGoJWj4J4ArBfeqC7HRAxEQEFICmtT0mCgkL9SXzFuI6KrI97TTrnGjDGY2B2q7KykgPMDMYDawl52b0S6GpfLcE4kDrxJBskHpKGypy7KGHRuSl1Y5ZYkMWDAea/8BVmMMwAuBSj7wTbAX/f8sO6UzSFTpnA9CqfKdJ6k9dU5N0T8rmNq9jztSylUHwvWgKh+L60PAK/89/4ijIYZgS8cZN0LZWoqqrSGmy+2pLebZnLTbtytSYI6sohamlpIavnbb6SDIYZAUnHb+/evQaTBMnC0FwYero+o8sIp7o8r8NaLVpZbuh7EWliqYxn+UoyGOZFPB82NjYanaVM/co1XTEijNqKXLjdmtbeuE8PyYhN/fZliDNWmmRDrp7RGdPoZtXX1/MiUAbDHIE3b4m2chiGRL5GSu9UvKro25f6oJt6fvzeRIQj+QoyGGYKXJ1+0tQbXyEU5NVXuEtXnhBZTmRBdeacRDroioXwlWMwzBxIAv9jitulGQNCglmMhPKEnkLslrQtJyfnPSSdQ52xcuRxnRa+WgxGz7N+so0hAFpEirLjbs6FLt5bGBw2inBoP9z/v3yFGIwegrrcuFcOlKw8v78wWVDvjaVD8uOhYXtmelece3vdkWcOVW4GY87bjHKodCW+Jm/mq8ZgmDGwE6jPwZIVRt34SgIoSIJ90sTwrjg/xmoeailIvmTK+ZvkBIQtMriOMoNhlsRTkPTx8Yq1cLxijXFSuZYsj/PNGZFPddV3QCJxMPr88u/QKE3gqXQGg8FgMBgMBoPBYDAYDAaDwWAwGAwGg8FgMBgMBoPBYDAYDAaDwWAwGAwGg8FgMBgMBoPBYDAYjN6BeIn7ryMkXsMjgz3DwoM8NkaEeJRHBHseiAzxvBAV4nUzZprX7YgQz1tRwR4XI0M8DkcGeezBbRm43zLsxz45aprHPyI9PR/hkWQwGB0QKfF8OTLEzRXJoj5K4nUHCaUteqo34N+ARGKy0OdIYqZ6C9FTvdqQnO7g8XYkhvqPyVw580UecQajNxJNkOefkWy2Iymg1eIjdIZcOiOLZowXVoYH3lwdLdm1PCLwU74SDEYPRjS6TJEh7ptjp/vAvSIZXUKW1MqwIFgXO11IiQgpTgkP+ICvEIPRQxAhcf8uKtjrYnQn3aXulLjZvrAqUoISghJ8M2lBoDtfMQbDTBEW5DkY3adrDyLZqFs9XrAyIhhWhgeJkhIRdDth/hRuyMdgmI8b5fMhBnHPRIY82GSjLl6wfGEArAgLxNdASMa/V4YH30icO2UgX1EG4wEFTVHjtHYFxUvMh2zUJWnBFCXpJC8IgOUoSfMDWsPDvZ/mK8xgPEiEE+w5AGehzJZsVEUkHDnpJM2fAonzJsNytIASF/iP4SvNYDwAwCS+1Bgztm465vl4qpMOSgIST9L8yZAYOjmDrziDcb+sG4nnUzFTfX7qKWSjKmS1LdcgnYR5/hAf6g8Jof4/xsXFPcQawGDcQ0TN8Hgds36Fnkg47dPpE7WSzrI5fpAw1//K/Pm+j7MmMBj3xp3646Lp46EnE45MPDCeo4V05k6CpXMmQfzcSVfjQ/2eZI1gMLoR0UHu7/UOwpEJZU8naSGdZUg6S9ESwr/Pr18/pC9rBoPRPRbOKz1lhsoUIZLRSjroZpELhuSzj7WDwehiSCSSfjirc8XYRDvK1WkXr06vGH8wgsrechdLJ+nA4pm+K1lLGIyudKumeu2I1EEcRCyLZ04Qb8C4WRNhySxflAl0I4rvL54xgVZ3ixKDrpk5EpDM2tFOOvR7cUYLXbEJVqwpDEYXICrEw1dbHk4sEgjdeCTLZvuJszpEMEROof4uMNvPEebhK1k+FBtZggREryTkplE+jDnFdvSRDhEsvl4ni5A1hsG4C8wPdHtVM3BMlg3ddCTxoZNg3hQXmOg4DFxG9gdXmwFahbZ5jhoIMyeMFa0fIh0Sc1oyQdaMPtKJk1l27GYxGHflVk3zLlO98egGo5sOp4shxGuUSCYuIwfoJButgp8hK4gsJUXcx1zyduLn6iYdsvLiydoL9XuLNYfB6AQigt3+JbpL8puObjJahzTX3wmc9Vg1xgiRFVlH5kQ8ZJnps3RorCiWNX7MkGLWHgajE8A4To2ScOgpjzfchLFD74psNMVn9CAxXiIjHa8HfE2Wl2jh6SMdch1DvBzA097qDdYgBsMEhAe7/Q8FfkWXiuIVeGN1JdkoLR4UP8fhSDzeZjGrJQbNDZDOTN9xaAkOWMNaxGCY4lqFeGyJkueoLMEby+Uu3SlDrtZM37HKLg4PMukQEesjHUoLmD/FldzPG5ypzGAY61ZJ3J7Am/+WLD/FD9xsB3Qb4SjEzdaKWsY88KRDMah4A6QTFuwh/h73EQMGsTYxGEa5Vu7/WSLmnUykoGi3Ew4JBaZnTBj7wJMOxZ4MkQ722QLnEf2JrLexNjEYRiB6ms8iuvnJ5elOt0pTfDFI/aCv7aJxWWY86VxjbWIwjIrneO2nm0tzWtwNxd3OWinkQnS1ixUt8X7gC7hT5rU+0glH98p5xPfgYT8QPBwGvsMaxWAYAE1hB7rbKcnAE28eV9sBVW72g4b62to+LpF83s/T8+tHvOwGfeduO6DIy2FQ17hYaB3QDfvgz2AZiOkEeYDTcCIda5qdG8caxWDowcKZzi/FooujsDzcbK0bPG2+fkrfZ3xt//24u631nru1fIh05k12MY9pcz2kM49mr9DSEcfPZkAiaxWDoQeR033/Qjc+3TAedtYRpnzWw94qitwuk6bL8eZ0txsIzsO/E925ef7O94Q4ItCiikJXKaITlpU+0lHk6ShiYR621ttZqxgMA/BzGpnjZmc9uzOf9bC12mT0FDvemGtXrYCiomJI35YK7vaDYEGAa/cSDpLM4jmTIT8vFwqLimDjqiQID3LvUtLRcE1bWKMYjG7E+PGDH0XSaTM4U+VkCwXSAigoaBcigcTIWZ2yPoyR8CA3WLU0EoqKi9XOm5eTbdJUvb6YDpGO79hhyt/pbmt1lrWCwehmuNpaTddp7eCK9Cle46C4uETtxlclnpWLw7qceCLQmtmwMh4KCwu1nldaIBULjN3t7BWRjmqaAZLOVQq8s1YwGN1p7dgOftNn9GDtFo6LHZRoEI60g8VTDMnRc7uMeCKC3SFxURgSTpHe8+ZL89Di8b6rPB1xulyddMDJ6bvHWCsYjG4ETadjIPpqB9LBGzA3N0ftRi8qksLt1m1QUZrfweKJnel398l8aJnMDZoAJSWlamSztzwXrrakdyCerPRUCAt01ZOR7KU7IxmtnBkTxqhbOhhYlzDpMBjdD3c7q+OqhOM0/FtIXrpI7QYvLpSCcGgbwEEUfN1ZlqdOABnbIDzQ9a6yhyc72yCx5Ku4UQVQX5krno/Oe60lTY14iOzWJMSI1pGusqW6SIdW4k8Yp75shC0dBuMeAMDCEknnpOrNN8ltFJSUqlsbN/anyQhHRUqQiNTiO4sWdJpwJJ72EB8boeZWEbEpCEchFxozIC9fhXgw7qPLzVqsZ5V57LTxYq6RBulwTIfB6G64uQ15QjVRkKycNSsS1QjnaG12B8IhudSYjgRQqDazFDbFWbR4oqf6wOLZ/pAYMQtWx0fB+hVLcco7ETauTIC1iYtgeew8WBIaCDEzfGE+5vuMHz1UjXDy8by3WjsSHZFQ464c0QpSkM6GFfFaY0ryBntaSWfWRMcOMSwPO6sTrBEMRnfHdGz6/8FbJZDsOWoIlJaWKW/+0mIp3uipWkmHCKC6XNXNKoRMjLMUFhXKCKSwQOvsk1o8CEmDpsVzsrPViK65KqeDlaOQOwe2iaSkJCjM49HmYukqV0qv2oLnmKdTzRrBYHR3PMd+gH+7pdMfQqdOwYBxkdLaOFqTpfPmJ7nYlK7m7nSFkBVzQ5uVo0J2TTvbg9xFOMO2bIFEPYiMBc20kg5aObhIVlz6oLmAlctbMBj3wr1SCSI7DvsG1qxMRgtF5jLlo9zWd/Nrie10hewsywc4rP+c5Nrl5rdbWBtWLFNzsahqoDbSIZniZtvByhFX49taTWGNYDC6EU4j+3/mNWqQyiLO7yAjLU1585fpc62UVkcq1JbndamV07o72yDRkYtVWNBOdmlbNopZzMoun0gy2kiHqglqWjliPAdX57s5DPoXawWD0Z2ula11vdrTHss7SPPbp6yrd+Tpda0Urs6h6uwOOTSdFXLpTtVlGiQdOu/2kvbvmpOVAWEBLsqKgYlaOnySBHnYaS12hgtmgTWCwehWwuk/nGrIqAVSRw1WW+vUoJIjo0vO7cuEco1kwbuVXThVfhndJ73nPpwqumHtweQ8JB1nZZNBbW2FYzELWZuVIyedGtYKBqObIBmC0+Q2A4QOszdIOqrrrPbt1EI6+H8bujZ1FblqM0jdJS27dMxiHdIgHbTQFKRDhKNJOpQkONl1pFbCkcVzBsxjzWAwusvKsbOWar35MK4hVbnha8vVSUdAoQzhe0E2mi5X624N8kFLZ0dJe0wnNztLdK+oMBd1NtUkHaqF7KTDyqFqi24jB3zAmsFgdAfh2FhN0FW8i4p0ZWVmKm9kcpvEWSS82c/vy+iyuE1npRDzfq42p4uk04ZSpDJrlpG6SVyHlRhKVo466dCrWMZVR+kOTgpkMLqNcKw/9Bql++ZzHPpf2LButVqSHhFOM7o4+feZcFStnh8xd+gaLsvIVcmG/mF1ElDp1sT5U9RIh2Saz2ixO6muAvNuNlbzWTsYjC53qayeRQvntqHuneFzponrqJTT5riyXFrwYBCO6rQ6fa/25MBiXG4xU3Sr1EgHrZwoJCIqr6rrN5MF5Oti/TxrCIPR9aRz3Ji2MjP93KG4pOSBIhljZNlcf0hCwlGSjtzK8TBQBxrHpYi1g8HoasKxtS50M6IOsr/zCFiXkiRm+JoX6RTCltWJkKRi6RABTXIeqff3igFk+4GfsYYwGF0IDJLGGGo3QzcfVdGb7uuiVtLCvESKRCMjnaQFU8S2x4Y6nmJHjCrWEAaja10qF0NtZrwcBsISXB4Q7GEPKQlLzJRwZPV8fkheJFo7CwLcDRKOJ/5u55Hf/y9rCYPRVRaOw8D/JULRSzi47iputq+YwxLoZme2hKNcCpGZLiYHahbn0hrLseVYDoPRdRbOmP6/1peXQjJ+9BCxyBUtggzxGgULp/lDsdm6VjIh19Abi4EZIhwKLvva8owVg9ElkEgs+miWH9WUCWOHiquwaY1SOPby9ncaDquSlxkdtKXSF7m4wDJj0xpIXR0PW1cvE//Ozc6QF+8yMRCN+xficXMyt0H6xhTYumoZpK5JgMzN67AaYZZsCt+IgmBUByhstsTAbJU1eNhYB7OmMBhdZeXYWuXqzsPBtjLjhikJh1yROX6OMMXFBgurpxskhvy8HNi4bCGsCg+ElDCUhUGyV+XfQbAqLAAyNq81Icu4CAkmHj8nO85K1WOGyY65OjwINiVHy7+H/iqEVA/Iceg3uq0cW+s61hIGo4vg5jDAV+cSBwys+jkOx4Q5P7ETgqwguidM9R4NwZ6j9c9a4c28GW96uvlXLgyEgjUL4UTlKuwOkaYm9F7BqvmQl2faqvPsjDQo2xAGZ3avxeOki10n6Hi0sPRw2QrIXh4KK/C8q/D8qavi1ZIXNSUrMwOchn2jKw9JGD/2q2cMjaOQNWgZ5A4FyB8KQtZQXgjKYGi1cHCJg6fDIP2Eg8lyCgtHIcHu9jB3irfOhECqr7M+Zjqsi5JA1bZFAKexxs45LO51BtdlnZbLT7gY88dM5Sp0et2H5UQNrdWiJQ2HqxXlUNNkr8fwOD/lyo57Ri5nC8RzFK0Ng3XREtgYN093LpFUCtrGgWarPEb2/1Jz3LAbRh8ASbtIUFK/ewwKh4GQN/QKAFiqbZMLaxyjd0PWRuaCTsJxUhDOBDXCCQt0hyB3BwifGSAuJRCLpKMVkYbVAxcuXAhjxoyBTz7+H3jz1Zfg5Reeg1/98ml4+OF+0LdvH+jbp12effpJ+NM7r4PVVx9DSoQvXKxdhySUDtcO5opF3um4VHpCIcV4ru1lpXDnCFYIPJIOxyuWY01jZ/j687/AO2++DE89+Zja8el8P3vkYfj1r56B37z4HPzu9d/A5599Bm5ubhATEwNZWVniMek8ZLGNdxzZsSqgXf/JSksmw+oNIWvwT0Lh0DZhh1ubUOkjkwrPNqFgqCiQOQigwAnat/nItknlUu7cJhR7HhG2O7/ECsjofVaOvfUKbQmARDgT0cJJDJ0stl3R7JYwb4orBLnZQ+y8GeJNS0QjUpgWeeThh+H7r7+AkElusDR8Bja5C8OA7yJsL7MQwmdPAdexI+HN376m3L9PH0voh2Txy2d/AQEBAdDW1gY3b94EwqBBg5FYHsftfaGPpaXyMx++/y5M8BgNsfNDsE1NOGxZFQur8PixWHR9so8TfPHZJ2r7a8qGDRuQdMogwHucWuAYxyZKSTg5Vr+HomEAWYMBckcClHiheMpe6X96nyRnhMY2G5Vtw9u37fACocDzZdZCRu+J49hZfeqlw63yHTdUXASpjXBI5mK/KUoKXBoxR7R0IiIiOtzI7//xHbjy4x4QrrQCXGhC12qfdjnfCMLl/dCG+6xaukDtGL/5zW9AgWvXrqlte+zRR6E8bx0IF5sBLrWIx9F1fMB96ByH9hbAc88+0+G7bt68Gd3EUpBM9GgnHLsBcWrxmvwhUhl5oCVT7CYnFZRCJ9l72rYVOatvK3JR2eYKQvagzayJjN5DOrbW57URjg/m4STisoDFMybo6KqJM1cTnSBEJJ25IulER0er3cTv/eF3ADcPY0ylwWQ50VqudqzTp0+LpFNRUaF874VfPQdwZX+njn/zTD08/vhjWkln6iRPMRfHy956YYcgcc6QkyJ55Nu3EwdJ9tB2SybPTt3KyR6mss1GfRtaPUL24EOsiYzeQTg21gHaZqso05gsHM2gcUfScQQJJgYuXjBDnBGiWM6rr76qvIlDJRPQukEr42y96XKlBSa6j1Iei45NmDFjhvK9lUtCO3dskmv7YfjAb5TH+vjjj5UxnZCJrkg6gxy1jZmQP6xeJA9VwpGObScVzW0FYzUsII92wilwFN8TcgZXsjYyej7hYDtgbVnHGFCGhLn+eglHlXSmIulEygPJNPuzY8cOeOmll8QbOTlmJro2eIOf2asuZ+vg9k/VcLJpOxzfVwpXjuwS31Pb53wDxC0MUZJC0OTxSDm3MC70L+V7O/PXazn2Xrh4qBKONZTAmf3lcOdUTcd9SC41wngXO/E4n3zyiWhBidUOy8th6aLIj3WNm5Bh7QlljurEoko40tEaFpDKtvxRGtuGIPHgLFeGlQNrJKPHA92HCOxIqUE6/ZUN5fQRjkJCJzmLeTrzgnyUU+bbt28Xb2K6mTctjxBJAM7UtsvZWiSbUmiszBa7bCpk/+48EM6q7HexAeYG+4jHefPVF5G8cNr7YCrcPJAqBpnp/cz1S9SOfftkNR4rV+24jSgXDpSL51X7HhcaIHiis3ic4cOHK7uS4usddLOe1jd2QqnHOtiOJFiK1kq+QzupkBsluk5ykY5S2YbuV4l3+7YCJKfcYWTlxLE2Mno8Joz47peabhUtcoya6iO2WjGGcMTZq8muIulMn+AoxkIUpPPll1+KN/OWlZGyG/x0jVIuH66Exoos+GlfCZzdXwbnWrfDaSShg3vy4XCNtH3/K03gMPR78Tj+zuiWHJZ3Cj2ZC1/948/i++EzJ6kdn8qiHqktgDPNpeJxz7aUwfH6ItiH57t1fLfa94BzdTBjsrt4nHHjxrWvvyopOWXMGN6JeOxSW/KfoC3+TWhLeEsmyX+EtuUfyGTFB+3vkyS9K3t/5QcgrPsAYNUbICQ+cpi1kdEr4G5vNV11itwZp8ZDcSaKquUZSzgkCwPcRPdqms8YZUZyKb4OHjxYvJnXLKOYC93ke9TlTLWW9zT+v9wAH/zxd+JxDu1IVmkdkwab4wLF94dZfY0WUZ0Rx9by3oW94O81RjzO5MmT28urlpUdM4p05lteujPXEtRkjoUWwfdDLaEtCnME49RFiLc8wtrI6B3xHNsBd1StnEB3W0jGwlWmEA4JLfacikXLZ/k5Ky0dytfx9vaWB5J9ZKRzarfJcuFQmXiMP73zGv6fr96z6kiGuO05zOGB602dOj5cqoeRg/4rHicqKkpJOvj9z3aWdNqW/gEzn5HQjlUAnNgFwg9fgbAYCWZpR8Jh0mH0HsIZaTVAtU6ONzbIS14YgK10vTpFOtPRylkomajWZG/x4sXizTzCGi2RC+j+nKoyTdASiZzlJ5u1Wj6tY6O8o5kwd5KDuF26Nd7045Nc3QfvvvOGeIycnBxV0oHc3NxnO0U6SX8DNVzA3KBoC62Ew6TD6D0BZPuBOaoZxxTDoQZzphKOqqUTHxWqtoiSbty+mC0ss0RwyvzkTpPkxokKePRnj8CnH/1eto5KW1vgoxnwi58/Ae/9/k0kkAaTz3H2QLFIOG+99ZY4Y6X47jT7hkstvuoU6az6BDpg27+QYCyYdBi9E+PHD35UkX1MgeNZWJaC2qx0hnBIFkxxA4mnHWzbtFFt0SSRjr29vcxSWROFN3klkoeRcqkWBn77hfjZn3av0tsHvWTDPHG/qTiLBuerjT/HmSqYG+QpfnbatGlifo5GXZ3lJpHOPCSRJSjoSrUt6IuB4z+0k85ptKpimHQYvTWAbGNt7WFvLc84HgzL0a3qLOHETvfBWsJuGIB2geJCXIRZRDcrrdKWS2ExPPPss/D4Y49iHk4J3uwY5zgpl5/KtcvFarAdLIuzbFg0RTZjdWibbjmWBQFuQ2TxoxCchj6/R/exSejcpyqhoXS9LGP6vfdgO1o2iu9chLV26HeUlRQfpfHCee2fwcGCn+kkHQwSC5EaZLK0H8Cat7GFcno78Wz5h1Zrh0mH0fNJx84qhWatnLH9b+z08SJxdIZwoiRe4hopca3TJVzzdCi1IyGgJfLjnlR47LEnxJXem5PmiaQCZzAR8ER5u9D/l2qgbNsyePqpJ0Qy2LosCG7uT4UmaSI065OCJGg7nI6dG2zFz73x2stwoHITznzViuSiPAcRzrkqEPBcCzB2Je775ttwtTVXO5nhMYXrhwXh2gGUQwe1ks48y0tikFjTgiF36vJBEJa/3U46J3dotXaYdBi9gXTEhnl+TiPEViudIZywQDd0q1zh8rE9sgWcJIfSdbpANw9mgr+nLOhraYmJfq+/DF98+hH0/88/4MvP/gpv//YVZYax/cB/YnrOJvGmby1KghYkFSIeXULbaT+azTpZlQKf/e1d8TgPPdQP/ohB4q+/+Bi+/+pT+OzjD+DlF58Xt/XtawlL5gdgTChLt+t2GLddbBF/m3CpaYe2sYR4y4sdCIeIBfN/RGz+JwjHytqJZ8P7TDqM3gUfR+sXvXDZA1k5tGqcljGYSjgR2Ntq1oRxEOAyEg7V5MkI5yIuuDycrTf2QtZDGwZ+L9SuFXNsoqc647GcMC/IE/JXzYKrSDRtR9PFHBzFZy7VbYQfFk3TSTiN+QmwEbdfb9qsdq47WAzsXPUayEiSwJKZbtipwgktOhfISp4K15u3gHA4Xf93JfmxQEY6tCr9bFOstvEM+K/F+ctqM1P495b/bScZcg1T3m///1hhB2sHSWc/ayajx8Jj1IB/eGMQmWocx4d2NnjshTWRnWSuFZWSoFdDN/BdCBEPlTet2rZYdKWa5C7Vzq2xkIKlR280b+6+8xOREulcahGE6webNYbzP2TsOHyCJJIoJ5FY/PundstGWPUnkWSEk7vaiWeXBGDt79pJJ8GyjDWT0XNJx77/eJoip06cUSFenQ4gzxw/Bhq2p8pdq2bZE7wbiefiXiSeBQGQmTwX6nKWQXribFiJxdZvNHUj4eD6Lvhpu+z3XTuIAep9UzWG8+dRwyxOQIKKu7ThQxWrpkRp1Qg//J/6FDoV+iKrKB63LbIMY81k9GDSsV5M8Rxa6hAR0knXytcRZuPK8vk4Vd6miOecaxAXYnYv8WwQiWZ1RDAWdw9Gl2pTt55PjFHJfx8WHzuqbTyP5s2KhcUW7VbOsfx2K2f939XiPMLZunbSybOVkQ4SlrDM4k+smYyeG0S2t8qdjLGYziYCRtGq8skuMBtze0gWzZqISXnyaoC0lung1m4lguuNm6BicxTcbOne84gESsFgIpzL+68LJ6of1zaee+qam26sfFtOLlh3Pe4JtFweAyH2MVCSkcKNin1Itm3R47IpdXpvqeV21kpGjwZaOU1zJzmLFktnXauIYKyhM8kJpo8fDSeay2QlQMkFOZzZzUSwTUZqB7bKXJ/uPtdRCpK3iCkBwvmmdZpjWV1d/XxzczM0FSQshETdyxx0Ln9YZimgBfQCayWjR8NlRP/rMdN8Ok04qlPmc5F4FmIniNvkWpGlQ+5DF5DBrZYtshmsQ9tU2tGk4oxUMdy8dBJu374NwrWTIByV1dZpz63BvlnYguZ2l1hBabI1UxREvtikdXZp9+7dExsbG2Hn7lpfIdbin5BsAumQWxVr8VfWSEbPd6/srNpiu4B05mEJDCIdEorv7C3dLJvJOo9rrI5k30UcJQ2Ola/CqXCaoZJJkzQBfsQi6jdv3YEbN27AnTt3lKGR43VScSZL3Fc+hX6qam07YXXKwsmXuVUXW+6ghTNN2zjiMol+NTU1UFdXR9UGxQCzsMTiRXSXflTOZGkT3CbEWTYJkRZPsTYyegV8xgzpdAZyx+JdLmL9nbk4fV64eRkW3GqVuVlHsu7KyhDQWmrWSAjcX7ZGJJzr16+hpXMLo7QCCG13oKVwhdp+B4qXq+X5dCqWI+bn4O8QjmP2coO1tnFE12oDkc7evXupdtB01W1CosVvhDiLcLVZLbJslljOhCR2pxi9DBPGDu0y0hELeAXK1l1R3s7y8BA4d6BCRj7HS2Sxl07e/G2tqUgoyVoSAhNURDVJMBEOlXYB4ZzEpRI3j1AGchlaO7/VNoa7du0KIQtnz549QMSDC1vDte2Hs1OPCUstDqH1Uw8Si36sfYxeCerS2ZmaOfqqBhLpKITIh8qX5m6IgwuHdwpwBeM8P2Z3moAoP6chF/uOYyvgjMS5kJYwSymUs1O8Plx0ra7U/9A5l6oVv9cxDBhf2UfuVI1woXEYtQDWNX5INBEKwlGQTl5e3kJd+8N6i77YctiSNY/Re0nHcbgQLek60lGWt0DyIXdLIVRjZ9YkbAsK0E841/on4XxdZNtPFVfgUKYAh7eZltNzWBYcvlC7Hk5UpMCPO1ZiZYoUrDS6Ae7sTzXRupHvfzQHhFNVp4ULDcHCxda39RGN3Lp5DF2qZiIZBeGQYDCZ6u5MY81iMHRgktPwa91BOu0FvdxFSwctoN3azi8tKPixtKQY6neXwbH6QriOfcppYeddBX4NrPeihaBXWvPgaF0h7K3ajv3PyyAnLy/AmPEiMkJiWaJq3ajKzp07ydLxYc1iMHRg4rjhtV3pXnWM8bjK2tL4OX6ueW4skrW4SKWyIIlUKpMCrGFTiFJZVgDN2IbmRF02zlhn4CLQDLixPx3uHEiDtgPyqWy5tNHCztY0cftl3O/cvkw4XpsD+3blQXkp1sXRPIfKebHwOr2+o2uccEbqbSSV3NraWgEtHK2EQ1YOVRuUSqXfsmYxGLpIx3HoDzFTvbuFcCjhkMpdhAd5duikgJ05P1AtB2qsSOWkkS+XPI3XfKl2UjFGcNapXvH90JJ5AsllLBJJBbpQ13FWStBGNKpCv4e6XmAt5bdZsxgMHfAZO2xGd1k6lDBIgeUF/i6LVc9JOS14Q19Gi8BkYuhOofKkaNHcbGhouKPLmtElZOXIS7KeYa1iMPTAw27gl12RHKgrmCy+Tnb/TvWcaDlk0k2NwVh4EInHFLIhod9C9Z/lNZUTWKsYDD2wsf7PixHdFc9B0onF7qChfu6/VpwPYyJf0lIBxQ1LnT87SxD5UnXpjEulTchNMoVwSuStk6ljBLpWX7JWMRgGgHGXg10fz/EU12FFUbzI0/MRxbnwJj2meeOSlWBsPIfIpbY8FwPEWRgsTodbGDi+07oNg8dpGDjOwDbE2bCjRCrudzfWjjHuFblUqoFwjOecY21iMIwAksPUqC6eNifSCUPSiUbSWS+RPEznwZv0y6amJp3xEJ1kgwRSUZoPV5vTTZoeP1qT1WniqaysNBg0Vt2frBx0FaezNjEYRmBeoOcbS7EOTnfk6CzGOj3zJrqJ64twRmiLrptYV3yH2r9cab6LvB383IHd2SZbPmR96crD0eyHhfvewfc+YU1iMEwABpP3dAfpxODMWFiA6/d0jvr6er3WA84cqVk35EZ1VZLg9ZZ0KDRlah4JkCwwVVLUzCmS/9+GGcgDWYMYDBMRHuIxbHEnqwfqIx3K1QkL8EjEAPKfVAPIukTmphRA6+7sLs9GvoNSWiQ1KaBMxKMt5kQBcLRumGwYjLsinmD3G10a1yHioYqEEq9zGJgdZMjSUci+6jJZo75uWAZBWcuU7Xw3QWacrbqYmZn5ImsMg3GXCHC3Gbdouk+XZyVTL61ta1fU1dTWGj0Vva+2otsKu1OMKE9a2JmMZXKp1rGmMBhdiBBP+yNdPZMVjuuvUn9Yh3GRKpMT7y615HQL+dDUuimEg9bNbSScv7OGMBhdDG+7wZ/MnDAWupZ4PCAvR3aTV1VVmbi8oBqa95ZrKW+RDk35cbjws3OEJKAUFUqNIRt6zV+/fn1f1g4Go5swceywhKneo7qMeGJm+EJxSanyRqaZIFMtHpKLzbny8qGZ2I3UW+xBvjBorFiqojPEc6Q6y2AWM1o3JawRDMY9gN/Y4aenuNp1CfEkRsyEIpUZICojQRm/Ji+qRDm0rwpcbf8LX/z9fexDPu2uypHextIYefmFhkjnCmsDg3EP4DN65G+pCZ+f4wgxs5iCwZ0NJK+Jj9J6Q1NejoJ4du+plgm6U1Vy2a0oAVq9G/ZWV0ETBpczt6wWLZznf/k0/P7Nl2HWRDs4sj1JLN7emcTByrJ8g0mCWVlZz7BGMBj3wtoZM+xfAa62MBGrjE7HXuWdsXoiMFdn07qVeqegpYXFcKUlG663ZuFaqgwszoX9qnDKXBCnzdXJJHvlDHj/ndfg/z5+D/uXS+Dhh/qJJFSbHdsp0mnBfCB9LpZ8QerHrA0Mxj2C79jhDlOQePycRsAk55HY38rFJPKhmavMbVsM5L4UGE0UKeG+YGv1T/ifD96GT/78DrYuzoc9aZGddrNO1mXqXSJByYqYcTyCNYHBuIeY6DjCNcDdDolnJExCmeJqgxUB3YxyucICXPCmzdNLOmXFUuOSAZFYwoLGwbtvvQKt6FKRhfP3vyDxnMjpdFznPJZAzdUT16HcHFwSEcBawGDca1dr3PARQUg8ZO34i2IDZAFRixl95EMxnQIDM0TbjSUdnLXyGTNAJBs4I8V400DYX7zsroLJFxsxUTBff0wHSWcxawCDcR8wwWX4nwPc7JSkM9kFBYmH4j4Sr1FYtMu1g+sVjVUJDS07KDWWdGgZA8443W5NVebq3G2SoGjp6MlOlq8o38RXn8G4T/B2cHh6irPNCZFwVEgnwE0mgShTvUfD/CmyLhCLMEenUGN1tjbplnYzRshPezMNlr3ABMFsvvIMxn3GZBfbqGAPeyQdGw3SsQNyw4JwW5CHA8yY6Iy5LvorA1KuDFX+u+ekg7NXzVU5BgkR84oK+YozGA8A/J2HvYZEcyoQkwi1kU4wks7MSa5qiYG6KgP+uDfrvpAOVSQ0RDo4bc5ZyQzGg4RANwcbsnoCkWw6Qzoku7dj//DD95Z0bqJ1lWvEanMknTK+ygzGA4hgdwefEE8HCHa3N5l0qOj6rXvpYqGVc5ASA41YYc6kw2A84AjwHPV9kLv98Wk+Y4wmHZJ9O3PuGencwVkwY8uXMukwGOYBy7n+Tj+fFzIhuhzXWFGSHYmiR5S2Iuw0i3StJf2+BpDpe1HtY/qutDCVvi92htjBl5PBMBPggs7XsU1vhxXjVFdHs6uCaFVgzyo4nNqtpHOxKQOzpLXOUmltj4O1nYv4SjIYZgK8cV/SVxuZbnTN2E5NefcFlW9icz5tCzyptYyuhnpIOrl8JRkMMwH2unqm1kBtZNXWM4op9LqKnC5rP6MQ6gaqmR1N1pZqqxkdks5XksEwEwBA35qamjuGCnSRu6VJPDux1k2X1EdG8rqELYg1LRyK1xj6XvjdiZQS+UoyGGYEtHQuGFcPebfWOM9pLD/RWauHaiHXVeZ2IByqk2PMd0JLjQgxkK8ig2FGwGBysSllSRUzXKpxnmJskne6PlNpuRiybNrQlWrAKXht8RtDfcpVhRoEYk1nK76KDIYZAW/e6abWQ6biWdqmtGlanZYuNO/KgVNIQtTD6ipOs1OJiqO1WbC3Ilfs8qAr6c/UbhRk6VAwnK8ig2FGwBv9o5aWFpO7P9CMkrZ8Hk0rSCEGCqwbEzDuIEiWR/kKMhjmGdc53pmbXjPA3BkxJmCsTfbu3UuvU/nqMRhmCLRaRmpLEjSWeHRZPBR41hZ8Vq3815lzyknnMjfZYzDMGDj9vJGmoDvh4iiDy0QwFO9BEmrB/1PwdTbVMMa/I/A1E+WqvIPDXTX227dvH5HdZ3zVGAwzB81kmRpUpv1pxglJ5CSSzieY+9MHxVLb8el9JJ1HkXymk5XTGZeOCAfPOZCvFoPRcyyeZlNIgNwyJB07U8+DrtHDSDolppAcLdlAV9CLrxKD0YOAN/e7zc3NRpNAeXn5P+7SutpgLPFgwLuerxCD0YNQUCDp15AZ9mLNnooj1VXYVliP1NTgmq3q6tguIbrq6rY9u3fpPd/e6l1Qs6Nwdm3esl/xlWIwegD2FyZGHS5LgSZpolFyuHwDJue1vtIV58akwZgWabxR520pTIaDJSuvtuQlfshXjcEwU+zLT5jaWrzcaMIhwRsfuur8zdJE74MlK0w6P33fhswlL/LVYzDMDLt2xT20vzD5kik3vOymX9FlpNMkTfIylXSaCxKhMT8xjq8gg2FublX2iuePV6wBU0kHiarLSGdfbvwYU1w7JfEVLc/jK8hgmCFaCpIKj1euBSIfowT3bcxLCOky9yoj4xF0sQ4afX6UYxVroT532TC+egyGGQJNFksASR9TpMu/AyYOmvQdJF3/HRgMBoPBYDAYDAaDwWAwGAwGg8FgMBgMBoPBYDAYDAaDwWAwGAwGg8FgMBgMBoPBYDAYDAaDwWAwGAwGg8FgMBgMBoPBYDAYDAaDwWAwGAwGg8FgMBgMBoPBYDAYDAaDwWAwGAwGg8FgMHoH4uKcHlo02fUXCwOcX4qcMfGNCInXH8Mk7h9FSjz/HiNx+yxM4vFF9DSvf0cGen4VGej6VVSgxxeRwa6f0/Zoic9HuP+fwoO8fxcucX4tYsrYX8WH+j3ZHR2wGQwGg8FgMAiWEje3J9AgeT0s2OPbcIlnSFSIx5bIEM+aiBDPAxHBHqcigz2uRU/1als0Y3zbYrnETvMRYkTxFqKnekO0xEuUKIWEeAIeA//2bH9Pvg/tHzPVW/wsHSd2uo+gODa94vY7eN7reN7/b+88wKq8z/7vyE6Ttmkz2rRv3qQjHelIk3Sk/Tddb9ssVzQucMseKqDIEHGCAoIoyhD3Ng5kw4HDcoG4EBBcaNREExVXHHDu//f+PecwD3sI5v5c132dfc7zPDyPv6/3vBQyzaEseJpDIUyP71uycJrz+BCfiX+MnO30fEiI46Py5xMEQRAEocemQYN6L/ax/XXwNHvnEB+HFRAQeaHTnMrDZkyAaHGuhAAxsBAJMQqU7mLYZkPYDOfK8NmTKiPmuF5ZETB1z/pFPis2wH20OWzG63nh4Q/LX18QBEEQHiACJ058fIG38x/goXEP9nLYtXCa0+1F8MiwFyXUx5m6o6BpjbHnKGKuG60J9jZsXOxbuT7U997qBd5Fa4N9/FYFe//fxkCfZ+RsEQRBEIRu4K1Z5OP822AvpwXB3o4ncf922IyJStR8HQRNcwyhMHWLMBktmzeF1oZMo/Wh02nDIl/D+kXT760O9vp8dZD3thULvPqsmu/ypJxVgiAIgnAfiXJzewp5NUPhsUmE5+IqL+ALRdC02Pi4Rc+fCq/PNPb8EDw+MC9aByG0Lnja3ZUBnodXzvPwXjvX/RU56wRBEAShA+GQVLCP3XsLvB0SEI66h2Tgr00YqpPyfSh8jiutCvJUYmf1Ak91f1WQF60K9KQ1EEGr8PyKAI/CVYEeTstCpj4rZ6UgCIIgtJFgVBih6sgHFUzn2QPBuSciTDreUAFGK+DtYS/PSoidlRA7bCsCPZTxfRZEuH8jet7UNVHzp74mZ6sgCIIgNJP5KPmGl2Hh4unOX6AMW8THfRU9k2g5RM/KoNpiB94dZfwah8CMYgjCx31ztL/b7+QsFgRBEIQ6hLnYPLfQ22nOIl+nLxdLeKrrJDQbb5fOdtEEjhmxYxI8EDpIenaH6OHXpl5b5jdlcYTf5B/I2S0IgiB8bfHx6dEr2Nv+I/S4KQybIQKn65evO1GUn5vm4WlE7HCVFxs/5vcs85t8ZNncKf3ljBcEQRC+NnAeDjoSB6Jx3w0JU3U/W2IMbTUldpb5T6EoNr/JeN2d738RMdvNa5WLhZS0C4IgCA8mQV4TfomwSCxGIpD0vunexn9DFjErmil2ItnQ1JDfg+duhc91WbDAx/lbclUIgiAIDwSLMeQSoxhSuMJHQlUPTi4P/y0xkoKWw8PTXLETOXey6uTMry3zc7uJUvfZISEhMs9LEARB6J6gk/FPsDBuk3ycB9s4eXl5C8UOG/f0Ue+Z43p26axJ4+SKEQRBELoNoe7u3wme5hQIgVOxSPrifD0EzyyXFosd9gqx4AmfrYkeiKassBmTXpcrSBAEQejShHg5Dgz1dS5bgpBVWzr5skhaPGOi6vOyZJbJXLAgVt9XtzM14xBZtU0g7q4sDQg7s/uy5uFprdhhsRSlvVa+dKaLV7qPz0NyNQmCIAhdisBZE19EafKyxS0KWTmpuUy8SPKiV7X41VgElc1xqfX80tkmc9GMRZASQBNrix6IpcXKJpDWfVnCaR09bkITPK0QO8a/4xKj6IGAjV80Z+KP5coSBEEQugSYVfUu/mdf3JQ3h4d0sgAJn1Nn0UPvFrUg4jkWJ4GedjTHdTx5O4wgl3GDyXHkALKz6Ee2w/vA+hqtT43Hfcjesh9NHDOIPOwsaJbLWAr0sFfeHfb+sPDh+3VtoXh+OqQXT/hcV4S0Wi92+G+mhbVcC0N8HT+UK0wQBEG4b/j4+KApoIMDhnJeb6hfDoc3WGzw4hZpXPSW+bmrRQ/hLpoxcSxNGvOxEjM2w/qQzdA+dURN642/zw63LIJmTByjPEkmbw+HydhCjSZCpT3L0ieov2/rxY6LCk1GQhTDY3cxbIaTlVxtgiAIQqcTOHHg48FejjNZMJgLDbGA4IUsSpUYT1H/0+dQ0vQJo8lp1EeasBnWPqKmJeLH3rI/edlbEkQahRnzekJF9LSzOSnvTJT/5DaJHSWS8XrAVLurruOHTJarThAEQeg0AiZZfXeht2PwIoQsOGxRt9mc6qPCiaromhsKQeEBcWFn0bfTxU1TwmcCPD5+k61osW91QnOoEm8iWNoeznJW4cq2iJ0lxuR0/ntMtR12ddzQD9zk6hMEQRA6HB8rqycWeDnOrZuIrHI1uMEcBA4vbLNcxpEDvCjWQ7uOwGlM9PhPsVGiRxM8Tso7IaKlDU0HvR1VuLA9xA5/D4ch7Yb3/8Leop+EtARBEISOBcnITljMDDU9Ohxu4B4rXCHl7ThC5dx0JS9OcwQP33raW1AIl737aqE5k4l4aUOyMirp2iJ2VFUdBI/fFGuaNHYQ2Q7rU2JrMUCSlgVBEIQOEjpeDv2wgJ0NM1ZdqXEBxoVrmtOIbiVwzIueD8l1/GBUg9mTKRdJBE8bh4aq3J0pbRI7/B1cXecyVktkR95VkuPwPr+QK1IQBEFoVwKmOvxskY9zbDgWJQ5RaLk5k8nP3YYcRvTv9kKnppfHbfwQCvCwqyV4RLi0fmAoC5uoNogd7qEEjyK5WQ3WksyH971rN7yfv5WV1cNyZQqCIAjtwqBBg3oHeTu6hng73gtVnY0nqEVsqt1w5OR8+ECInLrG/XpY1EmFVtvydrRGg66qMqstYocHj062HqpywLjvErw7R+0tB/xHrk5BEAShXQjxcfzFIh+nxHAsQly1xF6PSQgpWD2gQoe9B7ygcpJ1aAOl9WLN76rM4iXSr/3EDlf2OY4YwD2UwrnXk1yhgiAIQpsJnmY/GgvXXe6Q7DfZmpwgBMyFrdQiNLI/OeB1PL4Lu2Rr0ee0/Yi+RxxG9MtFl+NDeM9xPP8ZEk2/4mottWip7shdT/BMhXdn4XQJY7XVWLCwyDFZi8XObC2MhV47ZDVEE9gcOsX5VAz7QK5QQRAEoU1Eubk9FezlEMhJov6oiHEePbBWOTkLFnuLvhUoCU51GjVg2MQRA1/kzxn/x92zoe8l0l7DYvUdR8t+fe0t+n+C0MRtFj9dQexYQ+y4GHN3QkXstMm4dDzC6NVpbYJygKedqsYyiR1uDgmRfAvmI1epIAiC0CYWeDm/ikTdnbxo8ZwqDl3ZK4HT7y5uN9qN+OiX7fl78Ar9DP9rXwsRVMG/02kChz1VNbxVLOgmYozFPAg8ydu5v2InTHkUrVTnbWvj34i9gezdQZuDOKehA34iV6ogCILQakI8HX8U7G2/bbbrWBW+gifnK7sRfQOdR/b9Vkf+rotF/+ewqIXxgtYRYS4OU1kNeR+eqkEU7D+Ddmz7hFZELSF3x7F4/gMaP/gDlZc0D9VmdbtEd8tkYS97dbs8ZA7Fbt1Mcdu30IrQucbX7Lqs2DE1FZzuPBp/N56fVv03dIb4gSfwgO3Qfu/IlSoIgiC0GSurod91th78vxMxE6szf9facsB78PIUOY5sn/AWCxyHkQMp2G8GJcTHUUZmFqXr9ZSenq5Mn5FBOp2OVkQuodlTHChwqk23HR/B87/YokNmU1zMVtLrM2A19hX3+bn4mG20fOEcJYhMoqgriR0kyNMUm2H1EuI55Anx/SlCoKPlChUEQRC6NY7D+/8Ri9qetggeFjnuDmNo3apoCJzMWou+OdPD+H3JifG0KiyAQozCoXt4cdAjyHcSbVoZQWlpOiXgGttXTfhkUJoulTaviqRFMya1q7dHEzutS1Dm5GTunszCpm5SvDGcet1heF9vqcoSBEEQuj22w/u/j8XtpEMLE5itBr9PU+zH0Po1KykzK6tJkWNWCGRkUkpSIq1eEqBEQFcUPQuNIifYx5nWL19KaUYvVYv3Vc+fSaMta6KUYGqr6NFKzycZy85bVnrOJeeLZjirESTWZqr/IHS4ArAC94McHf/7qFwlgiAIQvcWO8Pe/zbCWSHs3WlODg97cpyQjxOxKEgJnIwGFn4lCvRplJuto92ZOkpNa0z0IOSzYytFBfjQAk/bLtPHJmSaA81xHU+hfr6UmJCgPFIN7SvbHuzrPpjpcUP7mpqSRGuWLqAFrRR41U0FXVrVVJC7dc9zt66VmFy71YEaHUEOFv2X+Fh98IRcJYIgCEK3hsMU9iP6j7Oz7HdRq8JpXOj4uNlTzPatlJWVbXYx10HUZGWkUdnBJKo4GUt0eqeyq8VxlLcrVb3ecLhHRxuWL1GT0e+Xl8c0xmL2pLHkM3E8rVkeSZmZ5j1XacZ9KcpNptvHq/f1q9I4KtqXrF5PSzO3r5pI3LFlHYXNngyB13IvD4/cYFHTonERM12U0OEqOO5kzZVxNROTRewIgiAIDyx2I/sPh3fnfEO9eDinw3roBzR/hie8EilYqOt7OHR8q0+n4/uTqPKktujTqTqG5744Gk+7sxrw9HBiL0TAtg2raBEW5gUdXM1kTugEQXi4Ww0hXzcHVJJtQYgu26wnh0XboT0pdKs0tsF9vQnRc3gPCzzzIT5O4k6M3UFRgdNb7NEKQ75OS6eeLzXaHLfx5DBiQINz16rCWJYSxhIEQRAeCM/OOw/hf/IOGAB51cFM/x0bVOrwohgwexqETjK8HJlmvTm5Oal0tSieqMzMwl9HBNw9sZOO5SWpz5kL97CY2rF5LS2e5Vo/t0UlNNvXNq9qW9CAVb1Hfcauxue1BGkWOnMhAiaNGUSz3J1pZwPeK5Pn6uyhpMb3s4adP5JImfiMOa8Wh8YS43fSsuCZEDw2zRZlLFpUCKslYgePgzB53tTXqSEPHp8H8PSVQ/RMlQRlQRAEodvjOHDgsxA7kRNGDayXs6P1zPmA/HymUHJSknmPDhbww3tTqsM4zREAeJ8BtywYMvTp9USAVrqtp60bVtJSf0+KDPSh1UuDUAUVrkRQws7tpIPwUqElk6XjM00Yv6f6/ekqOToOuULsSVoZHkKBvlMpcKYnbdu8kbKy6wsd9kZxXs6Xhc0QdXX29zKE4F58NlVnXtwl7NxGkchZCmpC8HC+Dg+MZZHTEs8OCx2ev+Zpb9nkkFmt9HzAcXuLAR/JFSIIgiB0e5wwAwkhrNPmqrHGf/weeU6wom1bNqmKK3OhHA7TcI5Ks4VOHTuL3J70BhN6tX41+vQMTai0sAKq5aavElr1hY6+Wui0Zl/LNMGzByE8s+KOw3cbVzcZvjMlJi/zn9J8sYPbMHyv78QxZGvRt8HwVZXYUdPP++XYjuz3hlwhgiAIQrfGZdzAlxGu2OI08qP6M6yQo+MIb0/4wkB4XzLqCQBesPfl6OhKUQu9HHU8HveQ31OSl0wpus4QM60z3tdMVJZ9ejgR+xrTun012gUOaenrJy6rKq3kJHiwAjWx00CCNvfWUV6dZoodTfC4GvN0+jcpdFS+zvB+lXZITra1HfZtuUoEQRCEbos7BoXaW/YN0QaO9jPr1fGaYEMxWz+h7OwcM2Xl6XT6QFKrPTo1BU95cTxyfnQQPF1V7OipYF8K3TkR27b9PR1DdxDuK8xNQThLbzZheTvCdKGq+aB9vfAVD05lIaO8Os0VO7j1n2KjQlPWTQgdbeo5e3X6X7Af3m+kXCWCIAhCt2XMmD5P2Vj2nQOvjtneOqacjoBZ3pScnFyvvwx7OvKQkFyOcvJWe3VqJSzHKu9OY/1p7pfx9mRmpNOnnJDcRq9OtXcngbIy6ycsc+5OYlyMMVm5fnUWNxGMnufebLETMceN5k21VbOumiN0TPk6qMSKdRkz4CW5UgRBEIRuycSxA5+ByFnk2EjHZE5KdkBoa0nIfLM5LOyVKEBS8r2GSsxbKHbYzh9OVKEiXVrXC2Fxo8DLKlwXU7W9rd5ffMcViESVrJxWv9cQV7xxR+kgjxqJysakZK6+WjZvStNiZ66rejx/qh0Gsg5U/XSaI3TsWfxa9i23s+jjJFeKIAiC0C1xsuj/Gha0BM7RaaxbMjcP5HydiMXBZhvqcbJucV6Kqqhq0cKP91bitrwojk7mJ6vQVXoX9OY06OWBOOHqsYO7U+HpSUSPnbiWix+EssqPxal9r1uZZWqsuDYimIKmWlc3EPTVqq+U0GmG2OHHWuiq6RydmsbnBRpMbh8/vP/35GoRBEEQuh0Y+jnQzrL/OcdmzMBiz44jFr6lCwMa9OwcRQ5LZVNip0wTN9xI8CCqtjjPJy3dfFfh7mimfclGD51ihOGuQ8RQk8ckhq7iffuyzYsdXWoKrQkPgmdHEzvc7ZgFTPT8qU2KnUhjCGuO6zjlpWmJ0OEKLCQwn0AO1yC5WgRBEITu5c0Z8uHz9hZ9lnL7/+bMvjLl7PB7F8ydTqlYfOvm7PAinY/RD9dLzOTsYKHnJNxTSF7OydQ12DjwQTQl4lSDRZ3KyzErBvH44tEEHBtzOTsZlBQfS8tDZqswVuh0LSE5eh4LHfdGxU6U3xRVZu7jPKpFIqcqfKUN/gyd7+LypFw1giAIQrcBuTl9sZCd5P+1t2TxM1Vj+WBkQiwa+GXn5JgJ59QoxVYl5LF0BqEdXsQfFM9Ne3h98iB82LPF4SsWhpyMfWx/shqvkWamGivmkw2Yl+WmSs/Zo7McHh2VlNyQ2GGhg1yeUF9nmmIzrNn5OfWTkvulOY4e+Au5agRBEIRuwYTRA15Boukm4yLW4sXPlLczYewQWh6+WI2IMNdnh0NTnxckUCFCWg0NvRTTjhWLwxP5ScrjY242GB9fXWoqrYtaSAsxbT0SHp3lAR4qfNWY2GGPznxUXDm1oOLKTPiq2GFk//flyhEEQRC6PJs2DeptP3yAM5rC3eDQRGtETi3BM/h9mu0xkRIwuynDzEys7pRc3JU8PuY6N/PxjflkPYX7TaUIhKNWQOgor44ZscNChx9zHx0fp1FkO6x1f19tLES/z3HfTq4eQRAEoctjZ/HhfyFwjjixN6eNIoe9QRPHfExTrYdR6NxplJSY0KDYEWsf06v5WNtp7eK5FI2wFAsdc2KH7/NzQQhzTRg9qMk5Vw3n6ahmkrdwO12GfQqCIAhdGlsVsuq3hcMRrQ1ZqaRkhEC4e66HnQV5O4wgT9vhtHj+DDQVTBKh04mCJwlNBdeF+SFU5VZH7EDozNe8Od6OI1uchFxXzKpzxaL/PLmCBEEQhC6Lj9UHT2DB8sIMo9s88qG1Cx8vmiyUZqNcOWzmRJo72ZqmItF1IXt0ksSj0/mCJ0NNQF+zeDYt89NKzlXZOYSOv7uNEqRtETpGj84de4u+8xwdHR+VK0kQBEHokqBZ3EAsWseb0zOnMZHDYwTmTraicHTcDcMogjm4P8V6CAVMd6P4nTtUQ0ERIJ0sdvQsePQUu3UDrVzgg5DWFFqADsqTxrY+ZFVH6Ny0H953+qZBg3rLlSQIgiB0OWwt+/0c/yOP58qb1oasrId9qEYI8MykCDU/SRM6fvDouFsNoZmu1rR57QrKzILQ0etFgNwPU40c02lt1CJyGz+YrNHksa3J5saBrxeRz2UtV5IgCILQ5XDD4E40ffOF3bFvZciKPTkTxwyiAA87ikJvFh4UyU3oFs+YqISOB3J0PO0sKSJ4niqB5nBKxyziGUaDkNJnqEokTVRpj/U13lP1/H0RG6ZtqLkdxm3NyKixHxkdIgpZbG7HxHkfVwfV86gtQkdVXVn0K3AY1u9duZoEQRCELgemk/8HVVZFPLeo5QJH64bsMu5jCvSypwj0ZWGRw0muLHIW+jjSPOSBTEPCq7v1UPLzcKbtWzZSVnZOuwgGFgVpEE6JMZ9QzPpl9ElUEG1YNIPWBXvRWpMtYPPWbo3P8ev8vk+WBVPMumh8fqsSYB0pfFKTEyl+2wbavjqctkTMp/ULp9faJm07azzm7Qzxpk1LZtO2FYsodtMqSo6PMYaiMtu8rUpIIZwVGRaihrK2NoSFHjqozuu3zXbU4B/K1SQIgiB0KaxHDHzR3qL/MrVYtTBkxV4cXhxdxw2mYJQoc/O5CKMnh4dKmgZMLoAAmjVpLLw6FuRhY0HhC/yrvS6tWaRZ3KTpKG7rOtocPg+ihUWMp7LVgR60JsiLNi+eTjujZlPKan/K3LiA9mwLpdyYxbQXt1mbFlDyqvkUEzlbvY/fvwqJuRvD5lISknYzMrI6xIvDt7Gb19DaEB9aid/j7d66ZAbFRc+htHXzKWdLMO3bvohydyym3Z8sJP36IEpY4U/bw2fRxoU+2DdPZWuDWAR50vqQabQ1OoSSYrcp0aO8P6307uzY9glNc7GjsQP/22KRYz+i3yV7y74T2nouGuL6/ZQSBq4wJH5UZkj4qMiQOLDQkDAQtx+dNiR9tMCwfcxTcsUKgiAILcJu2Ed90eztdEvHPCiRA3OzGkohPk6q+RyPHAhnkYOBkiaRw8ZeHX93a/JyHEFTEcKa6WpDG1ZHU1ZWdivEgp4Stm2kTWFzsOB70hp4QFbhdvOi6RAJofR53nq6U7ID4xJ4llZs01PC+XV+H+xOyXa6UrCDjmNKerZxnlR7dWo2dX3mWVafHoyn64Xb6d4JbOcZnmYe24wJ5to2GjAG4lbRVirLXknp6wKUWNLEjyetw7H4ZBlEHErK01sYGuRKuJSUZArxn1k1s6y5XZER7kydNHLAz9rrnDQkDfyHIXlQAaUPJkocSJQ2mPA425A85E25YgVBEIRm4zT2w+cdR/RbrA1m7Nc6kTOtWuSwJ4eHSdYUOSahs8AbXh2XceSFnjpcaj7fx41id2xX85nqh1T0akglj43Izs6mHMzK2r17N+3LzaOM1ER4cfwpGhVd7DUKxqiDtcFTKGXNTIpb4UMbQt3QI8YJYTNbCDArCvAcS/M8xiCsNg7znGzQT8aZtoRNJd262XQgPoQ+3b2C7kLg0IVkooupROcxf+tsvFEo7aSKU7F0ASMq9mS3bsioaVjnIYy6KC+O14SVElf4/k8TiD7j301R968XbKLjGZG0dzt7cnxp3ULOdXJQ+xGI/ZiP/Qjyxn5Mt8axtqOVgZNoy5KplLTalxJXzEAllYvyrC1FAvgK9MmJWR1Gu3OyaO++fbRr1y51HLPgvcnIyDA7XV477pm0MmopOY8ZrDpaN+7NUSLnDAa/jjZ3flGe1cOG+I/fMsR/5GpIGLDQkDgg0qAbGWnQ20cZMh3rGJ7TjYnEeyPhzQnH+5fh9iClDCJKHkSGFMt7pLfLM2Q5Riir+dm0cZGGpI8jDPH4/pqWMCACnws26O2cDPqJv5IrXhAE4evmzRkx4K9YqA45tiA3RxM5H0LkDFEiZ5m/OwZDTqYls1wgaOqLnGqx4wTRYUvTJ4yC2LGE2Bmq+uqkpqSoxZVFzfr162ns2LH05ptv0osvvkhPP/00PfHEE/Too49S7969qVevXsp69uxptB7UE+tpj0bs4YcfpkcfeYQef/wxehLf9fhjj6nnevSs/17+vl69euL1h/DeR+nZZ56mN371Yxr78b8hIMYjxORNmVtDKGbzatq85RPS6XSUm5tLe/bsqWX7ICxYmMXHJ9DGjRspbnM0ZWyaTxsXuWH/h9GA//yJfvK/36NvPsXb8wg99BD2Dftjbvt79+6F/X+EnuDtf/JxeuyxR+kR7M9DOB6N7XdPtT89q4yPGx9D3vfHHuPvepK+/e1v0yuvvELvvPMOubu7Y3vjKYvFJQTRlo3raLLtyAYTlVVJuWW/rxws+84JMdM7x5Dc/48IPWUrr0zKx5pnJgmiJW0UUbYjUZYZSx+rvSfxI+39NS11JFEmv8+p9mey8Vg/Dp/7uP5n2HSWeJ+99r49E5RBKMVCbInwEQRBeJAJt7J6GEMYndAFuby5lVY2xo7HWk6OoxoMGenXtMipafOmWKu5St72IwidCWlJ4Gx4SnQqdMIeh8DAQHr55ZcbXcSrhUkvevN3v6L5M6dQZvxaKs1PoWtn8qnyWilVfHWaKtlunaLKmyer7UaN+/zardPqvRXlpVRelkfHchMpZdty8pniSK/9/KdNbsOf//xn2r9/P5ljzZo19MILLzT6eRYd//nn/6Pw4Jm0N3UznT6URjcvHFbbp+0Db6OZbb95qtb28/27l4vpUuluKtgVS7Ebw8nJeiT94PsvNOtYsv3973+nrVu3Gj0/2cjb2aLydsbX8eywBxDnzD3kdkW4WFg8V8+TE/PBE4a4j7wRgrpHqSYB8pFR6IxpWOjoRhMl1BU5xsf8Wl2RYzL+zsRB5oWOEkgO9T+jBI/Vl4bkwc7yr4EgCMIDiItN/+cQeljSkunk1kP7qAZzC7wcECZxV8nHLRE5bCyQ/NwgdhxHqdEQbBHBfgjxpFWJndDQUHr11VcbXZTf/ddf6cge5K3cOkF0tZjoShHR5XY2/k7+7pvHqawgnezHDlPeobrbwt4RPz+/ekLn008/peHDh5vd/v958XsUFjSdbl4qILp+XPutjtgHtmslEHLHaEP0AnrlpR82KXa2bdum/g6cpLxz+zbyneJUFcbSmgP2v43k4zDXkYNeaOj8QujoQ0PKx6WkH1JD6ED0pI8zI1jwOBNel9QRZsRKjc9lm/scRIxuVG1RVFNYpY8x8zmTsBqj5f8kDTpkiPnon/KvgiAIwgOEjUX/1+DNSXZqZhIyJ6dyM0Duk8PjAzgvh3NBWiJyTPk6Icgjmes2Hp6dERA8LHYsaOmC2aqSyiR2Fi9e3KjYsR0zhO5eOqoWcfryaOcZPCz79Fvpz3/4Xb1t+stf/kL5+fm1xM7atWtVCK7ue21GD6bbFw93/vbfOU37srbT279/vcFj++9//5vi4uJUfpTm2UFFlqsdppt/wKL4ig3GhFhhXEhT5xhCV8ORRHyexYTy1CRD9OitzQudDDuEuIZDoAyoL3SS8Xm9lXmPjhJIlmbCXY0JK+PndCO19+k42XngSUN8/4HyL4MgCMIDguOovm87WA7Y15zeOWp2FTw/PNZBTb6GyFkyu+Uip5bYQRLxXNfxqr8Oh7J46Geonw+lpmo5O6oSCEmznDwbHR1Nb7/9dq3F+NnvPoMhoV4QCuzNKcQiXtB8u2y05j5f164WUSVuF/l70jeefKLWdn3rW9+Cd2ceGQya0Dlz9iwNHTqsnph447e/pKyENRBOJ1q/zZdbsM017UYJfXY8m6xGDqq1Td/4xjdo2LBhFBsbq8SmKUmZc3a2ofeR54Tx+aPe//t7LTnPDLqBrxpSB8ZS1hBNyOhtGxA6Nnh9qHnBogSSTQOfw/elDGtAIA1pQCCxJwjCKtWi+vfgeUIZ+3pD/H+fln8dBEEQHgAQfvg/5FqUNjXXikUOh7amTxitko558jU3A2ytyDHr2XEeSdOdOW/HgoJ8J6Maa1u9aiyuGlqxYoVKVDYtzC//z4u0IXI+Qj/wilyGt+KLI43bl0eo8uIhunJyL506mI58nJT6lpdKZ45k0PWyXDJcOqw+Q18crv9dEFeVuF3k51FL7HCSsK3Fu3T5yGZUcKGKqwyVVedTaA8qqf78xi9qCYvXf/1zyohdifBbaaPbXIFt/vL4Hjp5MK3BbT5bkEE3z+RVfabJY1FeRDc+zaOpE8bV2qYBAwaoJOvMGoNXuRqLhQ/Ci5uQZP18a843w7Z//9CQNmol7YXI2OVc38PCgoSFiTmhwwKJhYk5wcIeouSGBNKwRoSVrfa97GlCHpEhZdBd9OpZiCqvb8q/DoIgCA8ADiP6vWs/on9pUxVXLHS49w3PrFoRMBUNAd3q9clpi3HOjj9GREx3Hq1sGkJZcybbqj47mXX67LDY2bJli6oSMi3MP/nRS7RtdTDyaI5hgWdBcsi84bXKS4foUkkOFe1LoqN7E6nQaEX7Eqk4N0kZ3zc9X7gnQSU4Xz211yh26nzntSK6cmYPuTuPUVVNpm16/+9v0hmUrdP5pNp9cM4lonLLBxVX36967w9ffIHWRfhD7HAIq/42V1w8SJ8fy6YibI9pm4vUNmvbW7yv/jYf56Tssr2NHw+2qwV057N8mjHFrkaCd08aMWKEqhqrWX7OYSx42K6lpKR44/FDbTn3KHbkC4b4gcGGlOEVlA3Bke2sCZ2kwVpScVId040wVlhN0N5b0zJMAmlg7c+oRGRLrVKr5uey2CYYhQ4EUlIfMsT+65ph619ncBK1/MsgCILwgOBo2e8ddLU9wEM8G8vLmTh6EAV5OULkeKjk45odj9vT5mMQ6IyJY+DdGQ0bBQ/SGFoZgS7G2bXFDnsWOLTy3nvvVS3OP375f+iTFUEIyRRpC/ilgw3YIbp9Lo+untwN78c+qsAib+DnGxAClRAZdy/sp+un91L5qT3qfq3vw+t06xgV5O6k//y9OrT20g+eQyn5FPTISanfDBBip7xoC8TjQJS4V5eUT3FEVdH1YrPb/9WnuWqbb53dR/ca2uYva2/ztbI9VH56N/ZxfyPHA3blCN06n0veGLhq2hYu53dwcKC8vLx6QhOC5zw8PqPb4xysmNfLumJez2s0vydVzGmGzW7kubk1nptb5z14XInfqAzuSYbQnkSLYUtgS40W3YMMUT3OGMJ6WMq/DIIgCA8ITiP7vQGPTlZDOTpayKov+UJ8LEPzueUIWYXNnNQhIsfUZ4eruWa5jFcih707MyeNozVRi+t5dti7AM8CjR49Gj1oHlKL8wvPfZcig6YhJMN5KLyIH+gcu3xY/V5EoBd98+lvaFVYTzym+uVUnIxB88EE852OLyRRadYy6vt/f6zO2/n1LygrfhXyduCdupjfefuAY3bpeCaqyoZUbcv3vvc9mjVrluoJZEbsXMD9ce1xHt7172VTMR9iJwCCxK8J8+9NFQGPU0Xgk7h9otr48fxHNYHj1wPPQdSEQNSEQcSEwyKMt41ZNN4f1VPEjiAIwgPj0RnR70d2lv23cNUVCxpzpeSu44fQIgzmXIn5Ue2Rl9OcvB2eizUHScq+CAdNdxpJ/lMdaPO6lfXEDodVWPD4+vrSc889V7VAT7JBuOILFiDscdnfOXb9KO1JXkN/eP1XVeEfO4v36HrRJ8qD0+hoBwieAwmh9Lc/aJ/lRoZjh/ejL05kIjQG0fZ5J2w//8bNIjq0ayv98/+9VS283nhDVY3VTExm4wRx5PDcxP3ZsMc6TezM6EGVy/+IkOBeY02boYYZKYoginwMHpseTYsbETuCIAgPLlOsBn0TCclzMXW6sm4fHZM3ZwYGcS5HKTlXWS3yde5QkWNO7HAoa5qjJYXO9aKkxHhVel53xIIpb+cf//hHdZn3H35LB9I3GIVCXscbhM7hnE/oX3/9Q9U2TBjTlypOxGizrJqaY8WGURAHk8LoH3/6tfr8I+hgPNlhJN39LBei7VDH7wN7diAQVy2CcERFG2/D448/TlZWVqb8nHrHfu/evfxaIkJZP+pUsRP9ewjI3dQglfeIChYSLXuKKKyHiB1BEISvKygvH+xg2f9c3corlZszZhDmSDnCm+OpZlhpJeGdZ0GedjTbZSxNR3KyH5KT16+IIH1GwxPPOXl2yZIltXrvjEcH3xtl2RAKWMQ/3wfLbWfDd17EbfkhStm6lH71i59ope8YHbHQ11oLW52Jb57QqZHDcyF/LY0Z9K+q/RjS7990oShF/Q59treD9gV27TDlpq5RQtH02++++67KiWJBae64G2dnXcPfxaUzxE5lIOfZQLys+j565Iwnw97ZZMieQobi9UR3b9UWPIZKosPI3Yp4pGUeHhE7giAIDwa2lv1+Dq9OvHOdhGSt0sqCwjGoczkqrRbPmNCpIocHUwZjCKg/xkX4Il/HF6XtSwJmwKuTQHqUnfNgTZPVXXhzsCBHRkXRb37zm1pC4czheLWQ04U9mlhoD2PBcfUQnTuSSGMQ6jP93lu/+Snt3oEF9vOUlomcmgaBVIFE5vC5DvSdbz9dlYe0ECHEShZXl5HDc2Fv++4LhJRu6xL65as/qtqXPn36UGJiohI0ZoeWGo2PO8TObuROvdXuYscfAicIAiSsvijhPBwWPoaF8PQswG0aytAr79Zx8SC0dXAeEo97aCZiRxAE4euDvUXfKdzW3xS+sjEaJwQvR6UVz7Lq6Nwck3HIKhSl6ykbw+h8UYYqqz5fmEHnCvW41dOXRcl0/Vh8LbsGu4qp4OVFte3KsRQ6sjuBbKzH08OPPKoW7ae+8QRNsh2GEnMIkOtcqcRhGxY+LbRLEBpXufoplxI2hNCf3vp19WiH7z9LqwInKm+OAULlVtFWRNC2ILrVCsPnvsLnebL5xYPr0Zm6WkzxvoyBIC3ZvQUCDvtyJV8TKy3dl4v7NNF07SDlJa+i//79T9Wl7z98iYID56pjf7Uood4x5mns12r+PUrYEu7d+XTPKbp2fJfhStE+ZddK9huuH99p+LLoP80WO8ZqrMoAY5VUY6KEw1PLv0N0NIyoOBo5Ok9pgufuzdp65x48PvtnNd/DI2JHEASh+4MxEH+B0DlgGgXBYSt7iJ45blZK6ITPce1Ubw6LnRCEydK3RtAd0xyoq6hCuoo+M1dQfv3ZLqPXI6b53pGz8fTF0Z20cN40+vFPflK1kD/91JPIq/k9zfGwpYT1wXQ6dxvdPYsk4C81IUPlCHld5cTmPDKcz6FzB3eSbksoBUD49f3vO/Td73y76ru+ie8aP+Q/dDhpEZJlE8mA3/0ifyMVp0XTsTZasW4ZlaYvR371JiWgbh3fTtsjvej/vfXLWv1vfvS/PyAriNblIV60P2WlEnt0ca8mgnhf2K7sV+LmeqmOjujX0YbwWTTBeggGmP5IDUnl73ro4UfoX//4O8VvXEL3Tiej6WFsC7xR+LuUwXt2ESKy3PS3g90+TYbrpUcNV0ubJXYq5veyqQyF2IlqhveFRUvUk/DazK8WNQX4O4Q/RobMiYhg3asjeCCA8qZp3p2mBI+IHUEQhO7NxIEDH7cb3scdyce32LNj6oQ8B4M3uXfOkpkTVSipM8JVHKqa5TJOGVdcrV7oSxePI+kUk7mrxA4bL6LccfhkTMtDQqd3kgEJwpWn45CDu4Y2hE6mYX3fod/87GV64dlv0cMP9W5wBlSvXj3p6Scfp5e+/xzCUz8hi/5/Q7K2M5XlRFMFFngDBBWVxVU1CDSc3EmFyRFoEjiXDsQtpVL9CiqBYGmJyOH3l+qXU27MYkpe5U/HdFFabx5Tfx7sC+/PV8e20v7YYBw7S/rgH79H+Okleh7789hjDzc6xPPJJx5VXqi30bV50th+lLnRj74q3kYGFiucSH26FWE3VVafojUsvFpaLXbuniUInRjDpaLvN+fcpKge4yvCe5ZXRkJwRDbh0eHE4wOza1dgGSogeELJEPk0BM+k+knLFV8R7fM0Jiz3aErslBmW9rCQfzEEQRC6IY7D+/zCcUT/xAkY2qmEDjw7syE2ls/3oLAZnSN0TDbP3YZmYyxE1HxP0m9bRqfyk+mrzxCaKS/RFkseb3AB4ucMxiucimt9Dkw9ARSrRIrh03iqhEemEmXfZo29NQglGTjJ+HQzPR343nKMhMjYEETrgr0pdc18OpocqQRMSXrDIoeF0ZGkCEpa6U/r8bk9WxfS7ZJtzfOwmPYH4suABGfz+5SM55PweoIm0k7Htt/xVNuA7/w0XUt0vlyoidRrpWS4UnwWts5wtcTGcPnoSw2dl79+vseT33qsx7RePXvceemZHrRiFHtuzIge9spEoKQ8d1ptocPcKcfIiclEnMC89Aky7PFBDk9F7ffcvoL3uCBE1kMzc3k8KyB2onseMizqIVPOBUEQuqXYGd1/IMJYZ9FEUOXocAJwlP9kWjLLpVOFDlsgJqT7ojvy5nA/un4O4ZYbJ6q9AuWlWik0e3ROxbTvwtwZZhQ9WRsW0GpUtG1e7EvZm0OoCOGp4yx8lMBZTkdToki/Pog2LvShtUFetHfbQuW1aVkYqYvYyR3w8Oi04aMmwcpWAQ/PjROp8PC82sip+T6s9OXv9CCPd3tQoa+xAWBEHaHDHY73TDbjtblNht2eWqVWuBaqMoQjhyd3jpm6dKNIunFWG/i5sIanJ8Lo2QnvuRMeoFfkXwxBEIRuho/PoEfsLAf4ORu9OlPttPlWS1Hl01lCh3+HR0HMRX4Q99Fhr9IMCK5PoubT9fNoAHjzZPUiaQphsdegOwoeJXpiVaJy1iaIHoiZtQu8aH3INNoAcbMBt2vw3LoF3rRvO0QOe3LOxHXP/eRQ1pkUbV5YuTGUxYLn7hnO28kw3Dj2m6bOz4kbDY+XL/+RH62C5yaiR32PTvhDRLtdlLCpBRKS2YtjCOtV21OjBM/jZMjzM9+Lh8UOT0UPrSF2WOhE9jyH75J8HUEQhO6I88jB/2tvOWCzIxKTnUcNxIwrB1V1FTKtkz066KEzdzLEDkJYJpuJ5oGhmLN1QL8FeR7Hqj0DfMu5IGfTWpez06U8PSx6guDp8ULllietRbhqL4er2JNzJrb77hvn+ZzP0pLJrxr/bjeOk6G85JKh/JgrZEXv5pyf+06Wv3pof1bstaTxRnFjFCBLjR6d1CHa3K/rn+K8gCi+fga/dYIMOR5kWNpAt2QWPJHPQAzN0D537bT22RvntCq2hL5Ei4yfQ8jMENHznmFpzxnyr4UgCEI3xWHkgD8jhLWfE5N53lQkeumEdlJ5uTnB4wfBM5fFjus41UAwfO5kytNtpJsXTHk7RuMFjvNBTnVjQVDDuDTdAI+PQeXNPAD7xJ63C9y88aj298LfDoLVYLhcXIoSdDe6Vvzd5pyf+fm5Yw8dLb5eeDj/+sVtQ8ogcm7V8/CY+uXUtaaqtxr8XA2PzrKeXyIpeYL8SyEIgtCNQWLyQOTpXHbDrKtgb0dUXk1SXZJD7pPxNgR4aF6e2RA8cyePRzn4IvrqYkGN/B0uPy/SFlMVyorpOt6MllQundyucloMZUgWPptBleeykfycgccJxte2d9xvd6iZys5za3vjVPjqeD7+dn9rzrmJsRN/OnLkyN6ysjLC7aXcwyetITzehBjJ5oThFs+3aq5FVuXoJBvCHn5N/pUQBEHo5tgN6zvKZljfe9NQ5s2dke+XV6fKu+OldUpmD4/J2MMTgB44KZuWImkZvWJunVRVPUr0cOLrOf39FT3wxnx1bBud3b2aTmaupHN71qK3zga6hhDVzcKtqoz7FuwG8nSuoEfOVQzyvH31At2+dZ1u375Dt+/cVbcVFdVVQgYea3DvK6q8fgEthvSYbrGObuC7+Hv4+26iweBVJDtf3L+Bzu5aQycyVtCF3HXa3K37Jnp2aBVdn+Vo4SvO0+F8qzsQOZeL9xu+PPpec89LTFN/DQInuaSkhIUOHTp06HpeXt60TZu08JchvMdbsEQWJbSsHQRORFV5+T2InA2GyB4/l38dBEEQHhSxM7Sfg9PIj1Ry8OJOGurZ9AwsFjw2EDrW5F/HZiGPJ8rfnU4eSMJCeqI6tMWL64Wc++rVuYFOxyx2uLrKbDk5ni9OjaKyA4l0o/xLunPPoIkdo9UUO1VV0Tcu05n8eCpKDm+g0WC0+j0WWrdLtrd/+XizPTkJNTw5JaoJJErLK1BiHmr4Ys/TLTkn8/Pz/wVxU1BUVES4TwUFBXTgwIEbmMU1Izw8/OGa7yWfHg8Zonq8Dm+PH8RPoSpNX95ETx6T92a5SjyugLjJh8fI27BYBI4gCMIDyfjBHzpMHPsxBSBfZjF66nQFsVMtelClhb47NcUO5/OEoSR+V9xK5Jbma4KHw1ssdji5tCzx/nl5IDTYs8JeHS4jb1D0pKETcsYqOonxDqf37aDTe7drtm87leGxZjHq9RL9SiWSzH0Pf/+JzBWo7Np8/7w5J43H+iz6Hl3K1zxu7Mm5dbLScK0033ClZDSdy3uiOeciwlbfgbgJOnjwoOHw4cMscJSxZwdendsYLuofHx//aGPfQdSjp/L8RPR4GUnFwRAz5cr7E655gCBsLuJ5X4ib79V8vyAIgvAAYw3PjivydTg5eFEX8eyYm3bOzQbZ21PT5qJMnQXQkjmTKXZNCJ3Yn0R3LiIh9honxOL2EuY9nTWJnx2dJ4C4QzNuOex0Ztdqo/eFBcryqu7JxUaxcjQ5ig4nRtDB+KWwJeqWGwkWotdOsa66gzIbj4tg4/sX9q3TGgx2Zq4OCxtT9ds5nTZC42ap1ijwask5JCBHoTvyf03Jx2jP3CwhASHzTYicaRA45UePHq0SOSZj4YOw1j0MGg2OiYl5oiXnN4sZw5IeQyF2NuH2PbniBUEQvoZgDpbjZKuhqpnf/c7XaWpWFvfi8WfRY7R5Ncz0nJ8x34eTnFcsmJZ5oSjHib46OxOeHz0quK5SOfr2fIm5WueSq4XC6c7x+HwJjw+HsfagSaBu7TyKWzabdoTPpO1mbEfELIpfPhfNBQNp/87FyMmJ1jw4pu7InZFszWMvzsNjc4Xnah0gwxeHzkPQbIew8TZcLvnAcKPwe4i0wWXi06s15x4EzOvw4mxFyKqypienruE9lJOTczMtLW3Gpk2bHpGrVhAEQWgRVkM/GO0yfnBFQBcXO+aqtji3JwACqKboYUHEFjDFJtTHZ+Rjtf+Xry3MhCRX3Me46+vPXf+sYNhnJ/bnlZfl041TWXT7VCpVliWrQZuqY/HpmI4Ji6lxDkbjsvNTWtk531a9djq29gys9sitMVlZjNas8AzGSGDI561TaXTz7F66fCr3/PVPD/sji/r3hqtnnsFxQtc+6qUdO2pTyIeFCjw470C8bIPAuccCh4VMQyLHZLm5uYQQ1jV4dryb259HEARBEKo9O0P79nOzGvxZIARC6PTuI3bqen0CptqoUBzEzz3k+fj7+LzzUFP7Dk/BG5mZmVl79uwhLKTK0tLSSadLIx1u0/UZlJ2VSXty9JS7O50O70un0gNpdK5AR5ePQSAcT6SKk5ilxUKlbgl4Y9bW0vZGvpPFUuXJWLp3Ih4RpkS6VJRCZ46kUfH+dDq4J5327UqnXdkZhP2mtHQ9pfL+pqWp/WZDEjC/diI5OXlAW88tFibIw/krBMtKiJzPOPeGrSlxU9OjA+8P8d8nKyvr09TU1FFyxQqCIAgtZsyQPq+7Wg3Rc2n3ounO3VTo2CovDwRb5bwpNuE+PmOfaWq/dTrdaIiby9nZ2VVCpy1mEgtKLPEtntPr9ZSVAQGRBZGRk0b7d+kgOHR0eK+OCvalwlLoKKwoN5WO5aVScZ52y4/5+QJlqer9+fhcHj7P35OD78vMYDGm/Zauxm+ntcO+QFiwJ+UWjtHsphKCGeTcPAzvy68gaMZBpCyDlcJrY4CwMTRX2JgTOvv371fbsnv3br7NxTa9LVesIAiC0GIG/euNb04aN2jxfA/27Dh3M6HjoIQOWwjmawV42OgDvRx+08TC/F3kfwRh8axg70Z7CJ0H0ZRQg9DA/R0QMn+H+PgIYmYmBEg8bs9CkNzBcxUQNZUsapobkmqu0MHfSXmf2CByKiC8guF1elyuWEEQBKFVTBo1cNyMCWPK2bOzsJvk7fDwUE6qDphqp0rUgzzsbwS62zTa1h+L9vtYmE8WFxerxZS9Oghlibhpwvg4cb+b9hIzTRmHriBw1G9zWA3CazfsLblSBUEQhFZjY9H/NUwZTw7rAh2Um12OzuErFjuwhT7OPMA0a56H3W/N7V9SUtKT8EhMZ0+EKWfEtHBzPgh7MUTUNBaiS1NeHg4rdZTgMXlzjN4kZUavzk14ddzkKhUEQRDaysPejpYTAj1sr4d1scaCjeXqcEJyoGqGOIGCvO3XzXexeLLujhUWFnKjunD25jS00PIijtBWh3p5OJ8mNU1PKTC+n4V8m92ZabQvG7k4OTrk86Qq4/v7YLuzITAytc+m6vTqs/y5+yl42MPDx6q9hQ5XW9UUOaYwGufqQOxsRmLy83KJCoIgCG3Gy27EL/3drRPDZk7s8qEsU9k5G+ft8PYiwTrCx8enVg8WzFV6FovpEm5Uh1LnJhddVA6pRbatoseUNJyNJOKCvSn0eUEC3SqJQ6+dWOOE85imq7NqVVvFoOoL87dK4+iLoxgdkZtM2ZlptZKiO0v0sCjkkFZbBQ6LJg5RmYSUOaGD272oCvujXJ2CIAhCu7HAx6HfwulOFxb7TugWnp0goy2GQFswzWGtj5VVVXddhESeMHblvduScmeTl6dFXg+jwNmdlUanMbOLRUnnNCvcSXcgoM4dTqDcnNQqkdXRgodFSs1QYEtycep6cOp4jwxcIQe7BqGTBKEjs6oEQRCE9mXToEG9ISSmhiIHhq1rix2tGovNONMrM3BKdSUWREsfCJ1TPEyytUmyjVVrmUrMOQzFnpvKUzvv47TxavFzpSieDiAc1pEeH/a8cK5TY/k3phwcFo6N5UTxa5yMbOylk2cqL29rA0NBEARBaJBFPq4vhHg7RnT1ZOVgFjyoyGLjMBaqs24FeNpP4n2AR+dZhK2iSktL2xxuqZvAbPKcFOcl0+3jsfdf4DQgeu4h7HX6YBKEBLa5AwQPC0HOtakpbtgrZgw/qdBUQ+FAfp29QxA2n+E9nviud7jBo1x9giAIQqcR6GP34xAfx61LZk3q0vk7XH5uMmPobZ+P/ce/KywpeQdi5wSSk9slgZZzVHJ27VbC4Xh+EroTx3Y9gdOA6GGP09lDiWhCmNbuIS5OWDZ6ZJotkGAcqoqHvSlXmiAIgnBfcbez+LG/u9X2pUrwOHZ5wcP32RO1wNN2sz41Ye6RgqNXCwoK2rFqCN4L3J46ukuNidBmZu3sNqLnLgRaKbxR7dVlubnGISpjKOsoSsiH4bmH5OoSBEEQugy2wwa84m0/cjOLia46NyvYWJ3FtgDVWQunT6Ct66INWk+YQx3SE2Y/hM+RQ/vpfFEmwkVx7T8ktANFzyVUc+3K1KmZWB0pcIzhrHPw5EzEyImn5WoSBEEQuiwTxw58ZuKYwYt8J4ypKvPusknLnra0LMiXkuJ2UgZCJh3VF6ZWiAt25FAeXSjKgPCJb5nwOYP3n43vdMFz/VgcHdidiv497Zu0bBwi+hnEjheee0GuHkEQBKHbQD169Jw0drCt6/gh1zBWQpV7d7XQVjC2KRRenY3Ll1YtvjVzS7gyqKPHHOxn4XMwj84XZtLdhoQPxI0BImd7pDf99OUX6S9v/pwOpYQRXUwlOtlJHiKE4K6XxGIoaWqb83iMQ0MvIcF4BoTOs3K1CIIgCN2aSaOH/sVl/JC8qTbDydt+hHFUg1MXETt2FO7vSbHbNlNmVnaDCbUd7emp6fE5jFDXuSKj8DmfSOWFW2ia81B67NFHiDVkz5496eUfPk+LfK2R9ByjeXo6y8NTtpOuokydS+fbIng4Hwdi5zjEZX+5QgRBEIQHAkfH4U+7jh8603Xc0Htu44fSFOthNMd1PAQHQlz3S+xwkjI8O6vDAkiXmkJ64xDJhpJluYKIuyV3hLcnv44dOVKAkFoWDRk6jB5+qBe98/tf0jJ/RzqZEUn3WHRcTFFCiD5N0EJaZZwD1FnVXjGqIaE+vfU9ebjCCkLHAM/OXLk6BEEQhAfLyzNmyOtu44ake9hakOu4IbCh5Gk3gvynWCvR05keH06g5sTkzauiGvTqmMsxYeHDzQO5XwwLHyV+8vOo4GAuFSIP5+hh3MKKD++jY0f2UumRPXTiyG5UZOXQmcJsFa66WKyny8fSqLw0lW4eT0JH43iqRI8bA4+FYEFxIZlytgXQH19/VXlz3njtxzRxbF96929v0JOPP6qe692rF/Xu3Qti6CF6729vUn7cQgigpE7J3/mqNJaOYKRFik7f6lwd4/T4eAifn8qVIQiCIDxwTB47bMBkq+EnptpaEnJ6lLlZsfCxpLluVsrrosRPh3ZTtqOl/h60c+sm5UVpy0yrEpRnm+ZRaTk3MW2rtvosmbaGe9Ir//MCWfT/G40a+E8lcN75w2u0P34hVZ6OpaRVM+j9f75Fjz7yMNlZvE83ircSnUvsxD48SZSpb30fHq68guApQmn5e3JFCIIgCA8kVlZWDyO0ZT3ZauhFD9vhSuzgPm6HqftT4f3xdR5NAVNtO0bseKAKK3gmJSfGI1SV2eqp5FlovHf2cGL7dUWGkGGxEz7bXgmcf//1dSrWLUG5/Hh4cXqr597+3c8oc5M/PEBJZODk5bLYTq/O+hK5OzzXiyertzZvB4nKFyF2bOVqEARBEB5oHB3/+yhEzmh3m+Fl7NlhoTPFSsvrmQzhw7dsJvEzz91GC0G10fNjytdJ06UhrJLRaq/OLkwS//xIQvs1DDwTh5DWTpoxabgSNt995mmK9HMi+kJHq4Im0Xe+/ZR6/oN/vEVHkhZ3jjenXqJyDF0tjqN9ObpWh7K4IgshrK8QyprHA1jlShAEQRC+FriOH/7vydbD8r3sLcndengtsTMFj91thsGGq9emwhvk7TCCZk8aq7w/wdO0fj7NyftRYglDSzdEL1aJto0NnWyW2CloT7ETT7eObaVgHyt67dWX6E/I24mY46AlI8ODcxPVWddhWq+d+zSCoh3EDid+c6IyxM7qpKSk5+TsFwRBEL5WuNsOewWiJ9LdxuKOB7w9dcUOl7G7w9PDgoeTnT3sLNQtP/aCAOK+Ppz7E+ChiSBzXp1FvpNUcjILndaKHS2Mla7yV7rNGIj2CmMVJhjDWK0vQecKNwieOIS0XpKzXhAEQfg6C59/wZOTw6KHRY1ZsVND8KhbvJdDYp7wELGXiAUQe4F8HEfSzIljaY7LWFrgM4G2rF2OknPk67RS7GjeHT0dQ4Ky4WskdDhB+QwGhWa0IUGZp5tzRRsSlVNTUlKkIksQBEEQQpDb42Fj8RGEzkEWLixkmi120MzQJHi8HEaSJz43y82GNqyKViMi9G0SO+mqyd7lonjVdO/rIHZulcbR4b2prQ5hmYxL+CF2EElMf03OcEEQBEGogc/IkY+52Y3851Q7yxiImnvT4LFprtjxhtjh6q9Zk21p05oVSuy0xbOTZrSS/fDunNzZflVZXdjOwquTnp7W5tlY3KQRs7Fy4OV5Q85qQRAEQWiE2U5jn4fXx8nD1pK9PpU+TqOU0OkMsWMKZWVnptP5I4kPttjBvl0u5JJzXZvnY4nYEQRBEIRWMmjQoN6uI0e+4Gk/YrSng8UuCJ7K6ShZn+48Sgkdrw4QO6ZwFifsXmzPyqyuZAjRXTsWT3mowGqvyecidgRBEAShnfCxsnrC23bkGxA7k+HhyfG0s6jwn+pIm9a2n9gxCZ4cNBn8jPvulMU8UB6d8uJ4ys1JbTehwwnKInYEQRAEoQNBcuyr+fn5OwoLC+ngwYMNDunk2VdYkFVfmOYKHr0+nU7mJ6nmgN06rHVaMw7Pcafo5oauTDPEuNoKx9j88FM8f+zYMcLx34P3/V7OSEEQBEFoZyBi/gcL7pqjR4/SoUOHmj2hnCuIjM3wmhQ9ebt0dK24m1ZpqYGfcVSwL0X10klrRpNA9tQ0e9I7xE5paSkVFRXpcUylGksQBEEQ2pvDhw8/j0V3yZEjR1okdmou1twUr7GydW46mA47ignhLBy6hZcH23gPE9hPwDOlN+1DIx4c9no15L1pyljsQGwmwbPzIzkjBUEQBKGdQejqSSzSM1noQPi0arGuGeriWU8NeXtM5emH9qTS9WNxmqfndNcTObdLY6k4N7lqmxvKtWHPFnu42nLMOHTIXjXc3wSx8z05IwVBEAShA4BIGY9F905BQUGbFu6a3h40yWvU26ODZWOe1skDSXT3ROz9FT7cDRl5RecwtZ0ryXTpjYersrOzaf/+/Y3mODXXjB61Ozhmgfjub8jZKAiCIAgdABbdf2PBPc5Jyu0hdurm9jSV1KzN1kqjQuTFXCmMryrx7jDxY0w4Zu9SCUZc5GQ2LXBYuHG4rrWhqoaMjzlE5mf43nFyJgqCIAhCBwEvxffhpVhdUlLS7mLHZOwJ4cqk5nZj5jwZHj9xHDkzl44m0M2SOGNVV4zRqkVLXRGjmfY+7ubMeUI8sPM0vEj7d6VCuKQ1moNT0zgsx+G5jjouRoG5B7/xRzkTBUEQBKFjBY8lBM+V9gplNRbi4mql5paw1xRAXNnFXZpZCGViyno2vEHslalp/FwmjMve04zv59u0FnQ6Zi8Oh+Ha24tT1zhHCh61SvzOLDkDBUEQBKGDwYL7LBbfMJRAt0suSnskNHemtVfCcUuM++vgmCfBXpEzUBAEQRA6AS59xiK8pbi4uNMEj8nbw6Xb90vodHSoypzxMUZyMjcS/IOceYIgCILQiSAJ92mEtAI4l6StpeitTWZuyNPDr3ElFIeYOFmYBRI/Zo8Mv8aihZ/j19g4R4hfa0zo8Ps6U9hxiT+XmnPXauyveHQEQRAE4X6BxfgtiIC0zvLy8G+wh4cFCufMsEgxjqe4A/GTBfNITk5+Pykp6bWUlJRv+vj49Nq0aVNvc0ZEvfC+J/G+n6ampv4fzFmn08Xie6/zd5oEEIujjs7LMZOMfAy/2VfOMEEQBEHoIsD78Da8ETlNzc5qD+OeM/i9cgicZRAqr/PvQ7j0bK99MX0XvvsViB8/CJ/z7GXp6P3iY4djeAL3B8kZJQiCIAhdEHhBHsJCPRmioKK9Q1s1Ogjvgv35PniwfoKw3SauQmvNuIymxBuOF1dbReAYflfOJEEQBEHo4uQfPOJ6SJVLs+A52GYzejzK4M2xvN/7hgTlv0CY5HHYThMrbds3PkZHjnAZ/6EoVLg9JWePIAiCIHQxCtIXfaMwZdkHx/TR0cfSlpUc0y27dSwt+u6xtOWVx9KXE25bbcX6NXQsP50OH8o/uf/gwY+6yj7vPXDgt4cPH0o/WbCPijLWUZv3My3agNu7xbplXxXros+WpkVvLk1fbpmfuexZOcMEQRAE4T5xNDbqJSzOa07nrKbjGSuxaEe3u5XAzu5aBzGwKqIr7XtJSfyjR/VrJpdkrPzqZGbH7PvxjBVUlrOGilOjco6mLZWyc0EQBEHoTApSwv9yPHPF/rO713XIQl8lduAxOZm1iop1y4O70v5TXvjDEGLOx/Urr53C9nXkMWDBcypzdVlR2vLhcuYJgiAIQidQlrX22yW66JDTWaupNH1Fh4sd9nCUpC2f35WOQXq6z0MIPdmV6ldcOZ29ukOPARuLSvxWbEl6xA/kDBQEQRCEDmZPfMjTxanL5vMizyEc5Jh06CJ/KnvVmYLEiC7n1SjSRb8NwZf7We7GDhd85/du4NvtJZLDIwiCIAidA/ehKUxZ+dOjuijL4rRl9sUp0XbtaSXsNUmPHofv/ysnQHfV41BQsOmRoylRrxfpIkeXpEXZtf9xWGkHUTWmKH3pmwRvkpx5giAIgiAIgiAIgiAIgiAIgiAIgiAIgiAIgiAIgiAIgiAIgiAIgiAIgiAIgiAIgiAIgiAIgiAIwv3i/wNSJ7fzqetS9wAAAABJRU5ErkJggg==;" vertex="1" parent="5">
                    <mxGeometry x="6.079999999999984" y="-26" width="78.84" height="43.22" as="geometry"/>
                </mxCell>
                <mxCell id="17" style="edgeStyle=orthogonalEdgeStyle;rounded=0;orthogonalLoop=1;jettySize=auto;html=1;fontColor=#0A97F5;startSize=0;" parent="1" source="18" edge="1">
                    <mxGeometry relative="1" as="geometry">
                        <mxPoint x="279" y="449.5" as="targetPoint"/>
                        <Array as="points">
                            <mxPoint x="199" y="449.5"/>
                            <mxPoint x="199" y="449.5"/>
                        </Array>
                    </mxGeometry>
                </mxCell>
                <mxCell id="18" value="&lt;font color=&quot;#ffffff&quot;&gt;Dependencies &lt;br&gt;and built code&lt;/font&gt;" style="points=[[0,0,0],[0.25,0,0],[0.5,0,0],[0.75,0,0],[1,0,0],[0,1,0],[0.25,1,0],[0.5,1,0],[0.75,1,0],[1,1,0],[0,0.25,0],[0,0.5,0],[0,0.75,0],[1,0.25,0],[1,0.5,0],[1,0.75,0]];outlineConnect=0;fontColor=#232F3E;gradientColor=#60A337;gradientDirection=north;fillColor=#277116;strokeColor=#ffffff;dashed=0;verticalLabelPosition=bottom;verticalAlign=top;align=center;html=1;fontSize=12;fontStyle=0;aspect=fixed;shape=mxgraph.aws4.resourceIcon;resIcon=mxgraph.aws4.s3;" parent="1" vertex="1">
                    <mxGeometry x="151" y="420" width="56" height="56" as="geometry"/>
                </mxCell>
                <mxCell id="19" style="edgeStyle=orthogonalEdgeStyle;rounded=0;orthogonalLoop=1;jettySize=auto;html=1;fontColor=#0A97F5;startSize=0;" parent="1" source="20" edge="1">
                    <mxGeometry relative="1" as="geometry">
                        <mxPoint x="280" y="220" as="targetPoint"/>
                        <Array as="points">
                            <mxPoint x="280" y="220"/>
                        </Array>
                    </mxGeometry>
                </mxCell>
                <mxCell id="20" value="" style="points=[[0,0,0],[0.25,0,0],[0.5,0,0],[0.75,0,0],[1,0,0],[0,1,0],[0.25,1,0],[0.5,1,0],[0.75,1,0],[1,1,0],[0,0.25,0],[0,0.5,0],[0,0.75,0],[1,0.25,0],[1,0.5,0],[1,0.75,0]];outlineConnect=0;fontColor=#232F3E;gradientColor=#F54749;gradientDirection=north;fillColor=#C7131F;strokeColor=#ffffff;dashed=0;verticalLabelPosition=bottom;verticalAlign=top;align=center;html=1;fontSize=12;fontStyle=0;aspect=fixed;shape=mxgraph.aws4.resourceIcon;resIcon=mxgraph.aws4.secrets_manager;" parent="1" vertex="1">
                    <mxGeometry x="151" y="190" width="60" height="60" as="geometry"/>
                </mxCell>
                <mxCell id="21" style="edgeStyle=orthogonalEdgeStyle;rounded=0;orthogonalLoop=1;jettySize=auto;html=1;entryX=1;entryY=0.5;entryDx=0;entryDy=0;entryPerimeter=0;fontColor=#0A97F5;startSize=0;startArrow=none;" parent="1" source="25" target="13" edge="1">
                    <mxGeometry relative="1" as="geometry">
                        <Array as="points">
                            <mxPoint x="480" y="396"/>
                            <mxPoint x="480" y="355"/>
                        </Array>
                    </mxGeometry>
                </mxCell>
                <mxCell id="23" style="edgeStyle=orthogonalEdgeStyle;rounded=0;orthogonalLoop=1;jettySize=auto;html=1;fontColor=#0A97F5;startSize=0;exitX=0.5;exitY=1;exitDx=0;exitDy=0;exitPerimeter=0;" parent="1" source="45" edge="1">
                    <mxGeometry relative="1" as="geometry">
                        <mxPoint x="698.25" y="432.9999999999999" as="sourcePoint"/>
                        <mxPoint x="630" y="476" as="targetPoint"/>
                        <Array as="points">
                            <mxPoint x="669" y="440"/>
                            <mxPoint x="630" y="440"/>
                        </Array>
                    </mxGeometry>
                </mxCell>
                <mxCell id="25" value="" style="pointerEvents=1;shadow=0;dashed=0;html=1;strokeColor=#36393d;fillColor=#cce5ff;labelPosition=center;verticalLabelPosition=bottom;verticalAlign=top;outlineConnect=0;align=center;shape=mxgraph.office.security.token;comic=0;sketch=0;startSize=0;" parent="1" vertex="1">
                    <mxGeometry x="501" y="377.5" width="29" height="37" as="geometry"/>
                </mxCell>
                <mxCell id="26" value="" style="edgeStyle=orthogonalEdgeStyle;rounded=0;orthogonalLoop=1;jettySize=auto;html=1;entryX=1;entryY=0.5;entryDx=0;entryDy=0;entryPerimeter=0;fontColor=#0A97F5;startSize=0;endArrow=none;" parent="1" source="45" target="25" edge="1">
                    <mxGeometry relative="1" as="geometry">
                        <mxPoint x="579" y="396" as="sourcePoint"/>
                        <mxPoint x="450.5" y="321" as="targetPoint"/>
                        <Array as="points">
                            <mxPoint x="620" y="396"/>
                            <mxPoint x="620" y="396"/>
                        </Array>
                    </mxGeometry>
                </mxCell>
                <mxCell id="46" value="/cidr-to-mask&lt;br&gt;/mask-to-cidr" style="edgeLabel;html=1;align=center;verticalAlign=middle;resizable=0;points=[];" parent="26" vertex="1" connectable="0">
                    <mxGeometry x="0.2095" y="3" relative="1" as="geometry">
                        <mxPoint x="-3" y="-3" as="offset"/>
                    </mxGeometry>
                </mxCell>
                <mxCell id="30" value="" style="group" parent="1" vertex="1" connectable="0">
                    <mxGeometry x="143" y="526" width="90" height="60" as="geometry"/>
                </mxCell>
                <mxCell id="31" value="" style="swimlane;startSize=0;" parent="30" vertex="1">
                    <mxGeometry x="-10" width="100" height="60" as="geometry">
                        <mxRectangle x="80" y="250" width="50" height="40" as="alternateBounds"/>
                    </mxGeometry>
                </mxCell>
                <mxCell id="32" value="&lt;font color=&quot;#ffffff&quot;&gt;&lt;br&gt;&lt;/font&gt;" style="outlineConnect=0;fontColor=#232F3E;gradientColor=none;fillColor=#C7131F;strokeColor=none;dashed=0;verticalLabelPosition=bottom;verticalAlign=top;align=center;html=1;fontSize=12;fontStyle=0;aspect=fixed;pointerEvents=1;shape=mxgraph.aws4.permissions;" parent="30" vertex="1">
                    <mxGeometry x="53.50660935852729" y="13.5" width="24.362987592247183" height="30.65444813883708" as="geometry"/>
                </mxCell>
                <mxCell id="33" value="&lt;font color=&quot;#ffffff&quot;&gt;IAM Roles&lt;/font&gt;" style="outlineConnect=0;fontColor=#232F3E;gradientColor=none;fillColor=#C7131F;strokeColor=none;dashed=0;verticalLabelPosition=bottom;verticalAlign=top;align=center;html=1;fontSize=12;fontStyle=0;aspect=fixed;pointerEvents=1;shape=mxgraph.aws4.role;" parent="30" vertex="1">
                    <mxGeometry x="6.065201524612767" y="13.5" width="36.23063822885411" height="20.43629875922472" as="geometry"/>
                </mxCell>
                <mxCell id="34" style="edgeStyle=orthogonalEdgeStyle;rounded=0;orthogonalLoop=1;jettySize=auto;html=1;fontColor=#0A97F5;startSize=0;" parent="1" edge="1">
                    <mxGeometry relative="1" as="geometry">
                        <mxPoint x="231" y="555" as="sourcePoint"/>
                        <mxPoint x="278" y="555" as="targetPoint"/>
                        <Array as="points">
                            <mxPoint x="278" y="555"/>
                        </Array>
                    </mxGeometry>
                </mxCell>
                <mxCell id="35" value="" style="group" parent="1" vertex="1" connectable="0">
                    <mxGeometry x="560" y="190" width="90" height="60" as="geometry"/>
                </mxCell>
                <mxCell id="36" value="" style="swimlane;startSize=0;" parent="35" vertex="1">
                    <mxGeometry x="-10" width="100" height="60" as="geometry">
                        <mxRectangle x="80" y="250" width="50" height="40" as="alternateBounds"/>
                    </mxGeometry>
                </mxCell>
                <mxCell id="37" value="&lt;font color=&quot;#ffffff&quot;&gt;&lt;br&gt;&lt;/font&gt;" style="outlineConnect=0;fontColor=#232F3E;gradientColor=none;fillColor=#C7131F;strokeColor=none;dashed=0;verticalLabelPosition=bottom;verticalAlign=top;align=center;html=1;fontSize=12;fontStyle=0;aspect=fixed;pointerEvents=1;shape=mxgraph.aws4.permissions;" parent="35" vertex="1">
                    <mxGeometry x="53.50660935852729" y="13.5" width="24.362987592247183" height="30.65444813883708" as="geometry"/>
                </mxCell>
                <mxCell id="38" value="&lt;font color=&quot;#ffffff&quot;&gt;IAM Role&lt;/font&gt;" style="outlineConnect=0;fontColor=#232F3E;gradientColor=none;fillColor=#C7131F;strokeColor=none;dashed=0;verticalLabelPosition=bottom;verticalAlign=top;align=center;html=1;fontSize=12;fontStyle=0;aspect=fixed;pointerEvents=1;shape=mxgraph.aws4.role;" parent="35" vertex="1">
                    <mxGeometry x="6.065201524612767" y="13.5" width="36.23063822885411" height="20.43629875922472" as="geometry"/>
                </mxCell>
                <mxCell id="40" value="" style="dashed=0;html=1;shape=mxgraph.aws3.cloud;fillColor=#F58536;gradientColor=none;dashed=0;" parent="1" vertex="1">
                    <mxGeometry x="97" y="110" width="52" height="36" as="geometry"/>
                </mxCell>
                <mxCell id="42" value="&lt;h1&gt;Serverless API infrastructure&lt;/h1&gt;&lt;p&gt;Infrastructure diagram redesigned for the capstone project.&lt;/p&gt;" style="text;html=1;strokeColor=none;fillColor=none;spacing=5;spacingTop=-20;whiteSpace=wrap;overflow=hidden;rounded=0;" parent="1" vertex="1">
                    <mxGeometry x="40" y="20" width="360" height="90" as="geometry"/>
                </mxCell>
                <mxCell id="52" style="edgeStyle=orthogonalEdgeStyle;rounded=0;orthogonalLoop=1;jettySize=auto;html=1;startArrow=none;" parent="1" source="27" target="9" edge="1">
                    <mxGeometry relative="1" as="geometry">
                        <Array as="points">
                            <mxPoint x="510" y="315"/>
                        </Array>
                    </mxGeometry>
                </mxCell>
                <mxCell id="55" style="edgeStyle=orthogonalEdgeStyle;rounded=0;orthogonalLoop=1;jettySize=auto;html=1;entryX=1;entryY=0.5;entryDx=0;entryDy=0;entryPerimeter=0;" parent="1" source="45" target="43" edge="1">
                    <mxGeometry relative="1" as="geometry">
                        <Array as="points">
                            <mxPoint x="669" y="300"/>
                            <mxPoint x="515" y="300"/>
                            <mxPoint x="515" y="225"/>
                        </Array>
                    </mxGeometry>
                </mxCell>
                <mxCell id="57" value="/_health&lt;br&gt;/" style="edgeLabel;html=1;align=center;verticalAlign=middle;resizable=0;points=[];" parent="55" vertex="1" connectable="0">
                    <mxGeometry x="-0.3978" y="1" relative="1" as="geometry">
                        <mxPoint x="-3" y="1" as="offset"/>
                    </mxGeometry>
                </mxCell>
                <mxCell id="45" value="" style="points=[[0,0,0],[0.25,0,0],[0.5,0,0],[0.75,0,0],[1,0,0],[0,1,0],[0.25,1,0],[0.5,1,0],[0.75,1,0],[1,1,0],[0,0.25,0],[0,0.5,0],[0,0.75,0],[1,0.25,0],[1,0.5,0],[1,0.75,0]];outlineConnect=0;fontColor=#232F3E;gradientColor=#945DF2;gradientDirection=north;fillColor=#5A30B5;strokeColor=#ffffff;dashed=0;verticalLabelPosition=bottom;verticalAlign=top;align=center;html=1;fontSize=12;fontStyle=0;aspect=fixed;shape=mxgraph.aws4.resourceIcon;resIcon=mxgraph.aws4.api_gateway;labelPosition=center;" parent="1" vertex="1">
                    <mxGeometry x="630" y="336.5" width="78" height="78" as="geometry"/>
                </mxCell>
                <mxCell id="27" value="" style="pointerEvents=1;shadow=0;dashed=0;html=1;strokeColor=#36393d;fillColor=#cce5ff;labelPosition=center;verticalLabelPosition=bottom;verticalAlign=top;outlineConnect=0;align=center;shape=mxgraph.office.security.credentials;comic=0;sketch=0;startSize=0;" parent="1" vertex="1">
                    <mxGeometry x="501" y="336.5" width="31" height="30" as="geometry"/>
                </mxCell>
                <mxCell id="53" value="" style="edgeStyle=orthogonalEdgeStyle;rounded=0;orthogonalLoop=1;jettySize=auto;html=1;endArrow=none;exitX=0;exitY=0.25;exitDx=0;exitDy=0;exitPerimeter=0;" parent="1" source="45" target="27" edge="1">
                    <mxGeometry relative="1" as="geometry">
                        <mxPoint x="630" y="340" as="sourcePoint"/>
                        <mxPoint x="370.5" y="315" as="targetPoint"/>
                        <Array as="points">
                            <mxPoint x="527" y="356"/>
                        </Array>
                    </mxGeometry>
                </mxCell>
                <mxCell id="54" value="/login" style="edgeLabel;html=1;align=center;verticalAlign=middle;resizable=0;points=[];" parent="53" vertex="1" connectable="0">
                    <mxGeometry x="0.2857" relative="1" as="geometry">
                        <mxPoint as="offset"/>
                    </mxGeometry>
                </mxCell>
                <mxCell id="58" style="edgeStyle=orthogonalEdgeStyle;rounded=0;orthogonalLoop=1;jettySize=auto;html=1;entryX=0.75;entryY=0;entryDx=0;entryDy=0;entryPerimeter=0;" parent="1" target="45" edge="1">
                    <mxGeometry relative="1" as="geometry">
                        <mxPoint x="650" y="219" as="sourcePoint"/>
                        <Array as="points">
                            <mxPoint x="689" y="219"/>
                            <mxPoint x="689" y="290"/>
                        </Array>
                    </mxGeometry>
                </mxCell>
                <mxCell id="59" value="" style="points=[[0,0,0],[0.25,0,0],[0.5,0,0],[0.75,0,0],[1,0,0],[0,1,0],[0.25,1,0],[0.5,1,0],[0.75,1,0],[1,1,0],[0,0.25,0],[0,0.5,0],[0,0.75,0],[1,0.25,0],[1,0.5,0],[1,0.75,0]];points=[[0,0,0],[0.25,0,0],[0.5,0,0],[0.75,0,0],[1,0,0],[0,1,0],[0.25,1,0],[0.5,1,0],[0.75,1,0],[1,1,0],[0,0.25,0],[0,0.5,0],[0,0.75,0],[1,0.25,0],[1,0.5,0],[1,0.75,0]];outlineConnect=0;fontColor=#232F3E;gradientColor=#F34482;gradientDirection=north;fillColor=#BC1356;strokeColor=#ffffff;dashed=0;verticalLabelPosition=bottom;verticalAlign=top;align=center;html=1;fontSize=12;fontStyle=0;aspect=fixed;shape=mxgraph.aws4.resourceIcon;resIcon=mxgraph.aws4.cloudwatch_2;" parent="1" vertex="1">
                    <mxGeometry x="593" y="482" width="78" height="78" as="geometry"/>
                </mxCell>
                <mxCell id="70" style="edgeStyle=orthogonalEdgeStyle;rounded=0;orthogonalLoop=1;jettySize=auto;html=1;entryX=0;entryY=0.5;entryDx=0;entryDy=0;entryPerimeter=0;startArrow=none;" edge="1" parent="1" source="67" target="9">
                    <mxGeometry relative="1" as="geometry"/>
                </mxCell>
                <mxCell id="11" value="RDS Mysql DB" style="outlineConnect=0;dashed=0;verticalLabelPosition=bottom;verticalAlign=top;align=center;html=1;shape=mxgraph.aws3.rds_db_instance;fillColor=#2E73B8;gradientColor=none;" parent="1" vertex="1">
                    <mxGeometry x="140" y="314" width="49.5" height="66" as="geometry"/>
                </mxCell>
                <mxCell id="67" value="" style="outlineConnect=0;fontColor=#232F3E;gradientColor=none;fillColor=#C7131F;strokeColor=none;dashed=0;verticalLabelPosition=bottom;verticalAlign=top;align=center;html=1;fontSize=12;fontStyle=0;aspect=fixed;pointerEvents=1;shape=mxgraph.aws4.temporary_security_credential;" vertex="1" parent="1">
                    <mxGeometry x="233" y="293.5" width="42.45" height="43" as="geometry"/>
                </mxCell>
                <mxCell id="71" value="" style="edgeStyle=orthogonalEdgeStyle;rounded=0;orthogonalLoop=1;jettySize=auto;html=1;entryX=0;entryY=0.5;entryDx=0;entryDy=0;entryPerimeter=0;endArrow=none;" edge="1" parent="1" source="11" target="67">
                    <mxGeometry relative="1" as="geometry">
                        <mxPoint x="189.5" y="347" as="sourcePoint"/>
                        <mxPoint x="301.75" y="315" as="targetPoint"/>
                    </mxGeometry>
                </mxCell>
            </root>
        </mxGraphModel>
    </diagram>
</mxfile>